<svg width="89" height="26" viewBox="0 0 89 26" fill="none" xmlns="http://www.w3.org/2000/svg">
<path d="M8.97032 18.5876C8.64099 18.5876 8.29432 18.5616 7.93032 18.5096C7.56632 18.475 7.20232 18.4143 6.83832 18.3276C6.49165 18.2583 6.16232 18.163 5.85032 18.0416C5.55565 17.9376 5.29565 17.825 5.07032 17.7036C4.84499 17.7556 4.61099 17.8336 4.36832 17.9376C4.12565 18.0416 3.90899 18.163 3.71832 18.3016C3.52765 18.4576 3.35432 18.6656 3.19832 18.9256C3.05965 19.203 2.99032 19.5323 2.99032 19.9136C2.99032 20.295 3.00765 20.685 3.04232 21.0836C3.09432 21.4996 3.13765 21.8636 3.17232 22.1756C3.22432 22.4876 3.27632 22.7736 3.32832 23.0336C3.38032 23.311 3.42365 23.5536 3.45832 23.7616C3.51032 24.039 3.48432 24.2816 3.38032 24.4896C3.27632 24.715 3.05099 24.8796 2.70432 24.9836C2.44432 25.053 2.15832 25.1136 1.84632 25.1656C1.55165 25.2176 1.24832 25.261 0.93632 25.2956C0.901654 25.209 0.840987 24.9836 0.75432 24.6196C0.667654 24.273 0.57232 23.8483 0.46832 23.3456C0.381654 22.8603 0.28632 22.297 0.18232 21.6556C0.0956537 21.0316 0.0523204 20.4336 0.0523204 19.8616C0.0523204 19.099 0.15632 18.449 0.36432 17.9116C0.589654 17.357 0.849654 16.915 1.14432 16.5856C1.43899 16.239 1.75965 15.9616 2.10632 15.7536C2.47032 15.5283 2.79965 15.3636 3.09432 15.2596C2.95565 14.9996 2.83432 14.679 2.73032 14.2976C2.64365 13.899 2.60032 13.405 2.60032 12.8156C2.60032 12.0356 2.73032 11.325 2.99032 10.6836C3.25032 10.0423 3.62299 9.49629 4.10832 9.04562C4.61099 8.57762 5.20899 8.21362 5.90232 7.95362C6.61299 7.69362 7.41899 7.56362 8.32032 7.56362C8.77099 7.56362 9.23032 7.60696 9.69832 7.69362C10.1663 7.76296 10.6343 7.85829 11.1023 7.97962C11.5703 8.08362 12.0557 8.20496 12.5583 8.34362V14.7656C12.6797 14.8523 12.8963 14.9476 13.2083 15.0516C13.5203 15.1556 13.9537 15.2076 14.5083 15.2076H15.4703V18.0156H14.5083C14.1617 18.0156 13.763 17.9636 13.3123 17.8596C12.8617 17.7383 12.4283 17.539 12.0123 17.2616C11.7523 17.6603 11.3797 17.981 10.8943 18.2236C10.4263 18.4663 9.78499 18.5876 8.97032 18.5876ZM9.69832 10.5016C9.50765 10.415 9.29965 10.3543 9.07432 10.3196C8.86632 10.285 8.62365 10.2676 8.34632 10.2676C7.35832 10.2676 6.63899 10.493 6.18832 10.9436C5.75499 11.3943 5.53832 12.079 5.53832 12.9976C5.53832 13.9163 5.84165 14.6183 6.44832 15.1036C7.05499 15.589 7.82632 15.8316 8.76232 15.8316C9.02232 15.8316 9.23899 15.771 9.41232 15.6496C9.60299 15.511 9.69832 15.2856 9.69832 14.9736V10.5016ZM16.5623 8.96762C16.5623 8.18762 16.935 7.79762 17.6803 7.79762H19.4743V9.01962L27.2223 7.79762C27.4823 7.76296 27.803 7.76296 28.1843 7.79762C28.5657 7.83229 28.9557 7.93629 29.3543 8.10962C29.7703 8.26562 30.1517 8.49962 30.4983 8.81162C30.8623 9.10629 31.157 9.43562 31.3823 9.79962C31.625 10.1636 31.8157 10.597 31.9543 11.0996C32.093 11.6023 32.1623 12.1916 32.1623 12.8676C32.1623 13.2663 32.1363 13.6476 32.0843 14.0116C32.0497 14.3583 31.9717 14.7136 31.8503 15.0776C31.8503 15.1643 31.9717 15.2076 32.2143 15.2076C32.4743 15.2076 32.7257 15.2076 32.9683 15.2076H33.9563V18.0156H32.9683C32.6217 18.0156 32.197 17.9376 31.6943 17.7816C31.209 17.6256 30.7583 17.4176 30.3423 17.1576C29.9957 17.4003 29.5883 17.6083 29.1203 17.7816C28.6697 17.9376 28.1497 18.0156 27.5603 18.0156H14.5083V15.2076H16.5623V8.96762ZM27.1963 15.2076C27.3523 15.2076 27.5517 15.1816 27.7943 15.1296C28.0543 15.0603 28.297 14.9476 28.5223 14.7916C28.765 14.6356 28.9643 14.419 29.1203 14.1416C29.2937 13.847 29.3803 13.4656 29.3803 12.9976C29.3803 12.4776 29.3023 12.053 29.1463 11.7236C29.0077 11.3943 28.8343 11.143 28.6263 10.9696C28.4183 10.7963 28.193 10.675 27.9503 10.6056C27.725 10.5363 27.5257 10.5016 27.3523 10.5016L19.4743 11.8536V15.2076H27.1963ZM37.9804 4.00162C37.9804 3.53362 38.1451 3.13496 38.4744 2.80562C38.8038 2.47629 39.2024 2.31162 39.6704 2.31162C40.1384 2.31162 40.5371 2.47629 40.8664 2.80562C41.2131 3.13496 41.3864 3.53362 41.3864 4.00162C41.3864 4.48696 41.2131 4.89429 40.8664 5.22362C40.5371 5.55296 40.1384 5.71762 39.6704 5.71762C39.2024 5.71762 38.8038 5.55296 38.4744 5.22362C38.1451 4.89429 37.9804 4.48696 37.9804 4.00162ZM33.1704 15.2076H43.8304V13.7776C43.8304 13.275 43.8044 12.8243 43.7524 12.4256C43.7178 12.027 43.6051 11.689 43.4144 11.4116C43.2411 11.117 42.9551 10.9003 42.5564 10.7616C42.1751 10.6056 41.6378 10.5276 40.9444 10.5276C40.2338 10.5276 39.5491 10.5796 38.8904 10.6836C38.2318 10.7703 37.7291 10.857 37.3824 10.9436C36.6718 11.0996 36.2298 10.883 36.0564 10.2936L35.6664 8.60362C36.2211 8.46496 36.7671 8.34362 37.3044 8.23962C37.8591 8.13562 38.4571 8.04029 39.0984 7.95362C39.7571 7.86696 40.4158 7.82362 41.0744 7.82362C42.0798 7.82362 42.9378 7.92762 43.6484 8.13562C44.3764 8.32629 44.9571 8.64696 45.3904 9.09762C45.8411 9.53096 46.1704 10.0943 46.3784 10.7876C46.5864 11.481 46.6904 12.313 46.6904 13.2836V15.3636C46.6904 16.265 46.5084 16.9323 46.1444 17.3656C45.7804 17.799 45.1044 18.0156 44.1164 18.0156H33.1704V15.2076ZM54.281 7.79762C54.6623 7.62429 55.009 7.42496 55.321 7.19962C55.6503 6.97429 55.9363 6.69696 56.179 6.36762C56.4217 6.03829 56.543 5.63962 56.543 5.17162C56.543 4.59962 56.3697 4.15762 56.023 3.84562C55.6763 3.51629 55.0957 3.35162 54.281 3.35162C53.4663 3.35162 52.8857 3.51629 52.539 3.84562C52.1923 4.15762 52.019 4.59962 52.019 5.17162C52.019 5.63962 52.1403 6.03829 52.383 6.36762C52.6257 6.69696 52.903 6.97429 53.215 7.19962C53.5443 7.42496 53.8997 7.62429 54.281 7.79762ZM54.281 15.3896C55.113 15.3896 55.8237 15.1903 56.413 14.7916C57.0197 14.3756 57.323 13.717 57.323 12.8156C57.323 12.0876 57.037 11.507 56.465 11.0736C55.9103 10.6403 55.1823 10.337 54.281 10.1636C53.3797 10.337 52.643 10.6403 52.071 11.0736C51.5163 11.507 51.239 12.0876 51.239 12.8156C51.239 13.717 51.5337 14.3756 52.123 14.7916C52.7297 15.1903 53.449 15.3896 54.281 15.3896ZM54.281 18.1976C53.241 18.1976 52.3397 18.059 51.577 17.7816C50.8143 17.5043 50.1903 17.1403 49.705 16.6896C49.237 16.2216 48.8903 15.6843 48.665 15.0776C48.4397 14.471 48.327 13.795 48.327 13.0496C48.327 12.1656 48.4657 11.3596 48.743 10.6316C49.0377 9.88629 49.601 9.26229 50.433 8.75962C49.9823 8.30896 49.6443 7.78029 49.419 7.17362C49.211 6.54962 49.107 5.90829 49.107 5.24962C49.107 3.75896 49.5577 2.63229 50.459 1.86962C51.3603 1.08962 52.6343 0.699625 54.281 0.699625C55.9277 0.699625 57.2017 1.08962 58.103 1.86962C59.0043 2.63229 59.455 3.75896 59.455 5.24962C59.455 5.90829 59.3423 6.54962 59.117 7.17362C58.909 7.78029 58.5797 8.30896 58.129 8.75962C58.961 9.26229 59.5157 9.88629 59.793 10.6316C60.0877 11.3596 60.235 12.1656 60.235 13.0496C60.235 13.795 60.1223 14.471 59.897 15.0776C59.6717 15.6843 59.3163 16.2216 58.831 16.6896C58.363 17.1403 57.7477 17.5043 56.985 17.7816C56.2223 18.059 55.321 18.1976 54.281 18.1976ZM68.1008 18.1456C66.8182 18.1456 65.7868 17.9203 65.0068 17.4696C64.2442 17.0016 63.6548 16.3776 63.2388 15.5976C62.8402 14.8003 62.5715 13.8383 62.4328 12.7116C62.2942 11.585 62.2248 10.4236 62.2248 9.22762C62.2248 8.03162 62.3115 6.89629 62.4848 5.82162C62.6582 4.72962 62.9615 3.81096 63.3948 3.06562C63.8282 2.32029 64.4262 1.73962 65.1888 1.32362C65.9515 0.907625 66.9222 0.699625 68.1008 0.699625C69.3662 0.699625 70.3802 0.907625 71.1428 1.32362C71.9228 1.73962 72.5208 2.32029 72.9368 3.06562C73.3528 3.81096 73.6388 4.72962 73.7948 5.82162C73.9508 6.89629 74.0288 8.03162 74.0288 9.22762C74.0288 10.4236 73.9768 11.585 73.8728 12.7116C73.7862 13.8383 73.5522 14.8003 73.1708 15.5976C72.7895 16.3776 72.2002 17.0016 71.4028 17.4696C70.6228 17.9203 69.5222 18.1456 68.1008 18.1456ZM68.1008 3.27362C67.4595 3.27362 66.9395 3.40362 66.5408 3.66362C66.1595 3.90629 65.8648 4.27029 65.6568 4.75562C65.4488 5.22362 65.3102 5.85629 65.2408 6.65362C65.1715 7.43362 65.1368 8.29162 65.1368 9.22762C65.1368 10.2503 65.1715 11.169 65.2408 11.9836C65.3102 12.781 65.4488 13.431 65.6568 13.9336C65.8648 14.419 66.1595 14.783 66.5408 15.0256C66.9395 15.251 67.4595 15.3636 68.1008 15.3636C68.7422 15.3636 69.2622 15.251 69.6608 15.0256C70.0595 14.8003 70.3628 14.4536 70.5708 13.9856C70.7962 13.5003 70.9435 12.8503 71.0128 12.0356C71.0822 11.2036 71.1168 10.2676 71.1168 9.22762C71.1168 8.30896 71.0822 7.45962 71.0128 6.67962C70.9435 5.88229 70.7962 5.24096 70.5708 4.75562C70.3628 4.27029 70.0595 3.90629 69.6608 3.66362C69.2622 3.40362 68.7422 3.27362 68.1008 3.27362ZM85.7286 17.4956C85.122 17.4956 84.628 17.4176 84.2466 17.2616C83.8826 17.1056 83.588 16.889 83.3626 16.6116C83.1546 16.3343 83.0073 15.9963 82.9206 15.5976C82.8513 15.199 82.8166 14.7656 82.8166 14.2976C82.8166 13.8296 82.8513 13.3963 82.9206 12.9976C83.0073 12.599 83.1546 12.261 83.3626 11.9836C83.588 11.7063 83.8826 11.4896 84.2466 11.3336C84.628 11.1776 85.122 11.0996 85.7286 11.0996C86.318 11.0996 86.8033 11.1776 87.1846 11.3336C87.566 11.4896 87.8606 11.7063 88.0686 11.9836C88.294 12.261 88.4413 12.599 88.5106 12.9976C88.5973 13.3963 88.6406 13.8296 88.6406 14.2976C88.6406 14.7656 88.5973 15.199 88.5106 15.5976C88.4413 15.9963 88.294 16.3343 88.0686 16.6116C87.8606 16.889 87.566 17.1056 87.1846 17.2616C86.8033 17.4176 86.318 17.4956 85.7286 17.4956ZM85.7286 13.1016C85.3646 13.1016 85.1393 13.223 85.0526 13.4656C84.9833 13.691 84.9486 13.9683 84.9486 14.2976C84.9486 14.627 84.9833 14.913 85.0526 15.1556C85.1393 15.381 85.3646 15.4936 85.7286 15.4936C86.11 15.4936 86.3353 15.381 86.4046 15.1556C86.474 14.913 86.5086 14.627 86.5086 14.2976C86.5086 13.9683 86.474 13.691 86.4046 13.4656C86.3353 13.223 86.11 13.1016 85.7286 13.1016ZM79.3066 7.58962C78.7173 7.58962 78.232 7.51162 77.8506 7.35562C77.4693 7.19962 77.166 6.98296 76.9406 6.70562C76.7326 6.42829 76.5853 6.09896 76.4986 5.71762C76.4293 5.31896 76.3946 4.88562 76.3946 4.41762C76.3946 3.93229 76.4293 3.49896 76.4986 3.11762C76.5853 2.71896 76.7326 2.38096 76.9406 2.10362C77.166 1.82629 77.4693 1.60962 77.8506 1.45362C78.232 1.29762 78.7173 1.21962 79.3066 1.21962C79.896 1.21962 80.3813 1.29762 80.7626 1.45362C81.144 1.60962 81.4386 1.82629 81.6466 2.10362C81.872 2.38096 82.0193 2.71896 82.0886 3.11762C82.1753 3.49896 82.2186 3.93229 82.2186 4.41762C82.2186 4.88562 82.1753 5.31896 82.0886 5.71762C82.0193 6.09896 81.872 6.42829 81.6466 6.70562C81.4386 6.98296 81.144 7.19962 80.7626 7.35562C80.3813 7.51162 79.896 7.58962 79.3066 7.58962ZM79.3066 3.24762C78.9426 3.24762 78.7173 3.36029 78.6306 3.58562C78.5613 3.79362 78.5266 4.07096 78.5266 4.41762C78.5266 4.74696 78.5613 5.02429 78.6306 5.24962C78.7173 5.47496 78.9426 5.58762 79.3066 5.58762C79.688 5.58762 79.9133 5.47496 79.9826 5.24962C80.0693 5.02429 80.1126 4.74696 80.1126 4.41762C80.1126 4.07096 80.0693 3.79362 79.9826 3.58562C79.9133 3.36029 79.688 3.24762 79.3066 3.24762ZM85.8846 1.55762C86.0233 1.29762 86.188 1.13296 86.3786 1.06362C86.5866 0.994291 86.7773 0.976958 86.9506 1.01162C87.1413 1.02896 87.3406 1.08962 87.5486 1.19362L88.7446 1.92162C87.0286 4.66029 83.796 9.80829 79.0466 17.3656C78.908 17.591 78.7693 17.7383 78.6306 17.8076C78.5093 17.8596 78.3793 17.877 78.2406 17.8596C78.102 17.8423 77.9546 17.7816 77.7986 17.6776L76.3166 16.7676L85.8846 1.55762Z" fill="#353D51"/>
</svg>
