<svg id="united-arab-emirates" xmlns="http://www.w3.org/2000/svg" width="30" height="24" viewBox="0 0 30 24">
  <rect id="Rectangle_5410" data-name="Rectangle 5410" width="30" height="20" fill="#f0f0f0"/>
  <rect id="Rectangle_5411" data-name="Rectangle 5411" width="30" height="8" fill="#fe4b55"/>
  <rect id="Rectangle_5412" data-name="Rectangle 5412" width="30" height="8" transform="translate(0 16)"/>
  <path id="Exclusion_6" data-name="Exclusion 6" d="M20596.895-10749.571h-2.859a.192.192,0,0,1-.139-.041.1.1,0,0,1-.023-.095.356.356,0,0,0,0-.112l0-.011,0-.03v-.023a.23.23,0,0,1,.02-.164.079.079,0,0,1,.063-.025c.262-.006.311-.155.35-.3l.008-.008a.124.124,0,0,0,.006-.044c0-.016.012-.031.014-.046l.008-.01a.042.042,0,0,1,.012-.031.1.1,0,0,1,.012-.033l0-.021a.331.331,0,0,0,.025-.069c.008-.021.012-.042.02-.063l.018-.06.027-.078-.062-.051-.039.04v0l-.016.007c-.152.154-.287.28-.41.391a.125.125,0,0,1-.057-.144v-.011a.068.068,0,0,1,.008-.014l0-.03c0-.757,0-1.521,0-2.267,0-.332.115-.5.338-.5a.7.7,0,0,1,.264.062.681.681,0,0,0,.215.055c.115,0,.176-.081.2-.288l.006-.039v-.009c.031-.19.043-.286.006-.34s-.166-.068-.381-.086l-.008,0h-.039c.166-.391.316-.51.678-.51h.045a.78.78,0,0,1,.795.56,3.872,3.872,0,0,1,.113.511l.008.054v.016c.021.115.049.149.105.149a.273.273,0,0,0,.1-.029.941.941,0,0,1,.268-.085.466.466,0,0,1,.111-.017.326.326,0,0,1,.35.334c.01.625.01,1.24.01,1.891v.2a.833.833,0,0,1,0,.1v.491a.72.72,0,0,1-.082-.079l-.02-.017-.033-.032-.041-.03a.924.924,0,0,0-.141-.133l-.045-.045c-.037-.041-.08-.077-.121-.116l-.016-.013-.064-.061a2.226,2.226,0,0,0,.139.546l.018.04.014.039a.413.413,0,0,1,.043.125.1.1,0,0,0,.1.078h.006a.645.645,0,0,1,.074,0,.17.17,0,0,1,.133.043.248.248,0,0,1,.051.194l0,.02a.511.511,0,0,0-.008.109c0,.063,0,.1-.029.123A.184.184,0,0,1,20596.895-10749.571Zm-1.816-1.24c-.064,0-.078.064-.088.121l0,.02c-.01.023-.014.045-.021.063a1.04,1.04,0,0,0-.111.287.265.265,0,0,1-.027.063.15.15,0,0,0-.035.1.121.121,0,0,0,.063.048.458.458,0,0,0,.148.028.223.223,0,0,0,.15-.049.171.171,0,0,0,.043-.179v-.017a.32.32,0,0,1,0-.087v-.177c0-.09,0-.2-.088-.222Zm.773.01a.066.066,0,0,0-.031,0c-.092.019-.086.115-.084.208v.04a.257.257,0,0,1,0,.095v.123a.293.293,0,0,1,.006.074v.006c-.006.066-.008.134.088.149h.016l.02,0a.885.885,0,0,0,.113.011.208.208,0,0,0,.127-.029c.051-.047.023-.1,0-.164l0-.008a.116.116,0,0,1-.018-.037.135.135,0,0,0-.01-.021l-.014-.028,0,0,0-.009v-.008l-.006,0a.18.18,0,0,0-.045-.1.436.436,0,0,1-.043-.133C20595.941-10750.724,20595.924-10750.8,20595.852-10750.8Zm-.385-2.06a1.607,1.607,0,0,0-.629.145.2.2,0,0,0-.158.248,2.034,2.034,0,0,0,.66,1.3.211.211,0,0,0,.127.061.18.18,0,0,0,.125-.061,1.973,1.973,0,0,0,.664-1.323c.023-.107-.02-.17-.154-.224A1.631,1.631,0,0,0,20595.467-10752.861Z" transform="translate(-20579.865 10763.571)" fill="#efc627" stroke="rgba(0,0,0,0)" stroke-width="1"/>
</svg>
