<svg width="45" height="57" viewBox="0 0 45 57" fill="none" xmlns="http://www.w3.org/2000/svg">
<path d="M44.822 56.6616V43.4407L42.1409 41.1406H2.68396L0.00292969 43.4407V56.6627H11.634C11.6203 55.2389 11.8888 53.8265 12.4242 52.5071C12.9596 51.1877 13.7511 49.9875 14.7531 48.9758C15.755 47.9642 16.9476 47.1612 18.2617 46.6131C19.5759 46.065 20.9856 45.7828 22.4095 45.7828C23.8333 45.7828 25.2431 46.065 26.5573 46.6131C27.8714 47.1612 29.0639 47.9642 30.0659 48.9758C31.0678 49.9875 31.8593 51.1877 32.3947 52.5071C32.9301 53.8265 33.1987 55.2389 33.1849 56.6627L44.822 56.6616Z" fill="#29ABE2"/>
<path d="M41.542 12.2836L27.308 1.62863C25.8948 0.571363 24.1774 0 22.4125 0C20.6476 0 18.9301 0.571363 17.517 1.62863L3.27698 12.2836C2.26065 13.0449 1.43547 14.0322 0.866699 15.1675C0.297928 16.3028 0.00120285 17.5549 0 18.8246V38.8486L2.68097 41.1486H42.145L44.826 38.8486V18.8236C44.8262 17.553 44.5294 16.2999 43.9592 15.1644C43.389 14.0288 42.5613 13.0423 41.542 12.2836Z" fill="#353D51"/>
<path d="M22.4088 16.8941C21.2653 16.8929 20.1478 16.5528 19.1976 15.9166C18.2474 15.2805 17.5071 14.3768 17.0703 13.32C16.6336 12.2632 16.5199 11.1006 16.7437 9.97924C16.9675 8.85784 17.5188 7.828 18.3278 7.01983C19.1368 6.21166 20.1672 5.66146 21.2888 5.43881C22.4105 5.21615 23.5729 5.33104 24.6293 5.76891C25.6857 6.20679 26.5885 6.94801 27.2237 7.89889C27.8588 8.84977 28.1978 9.96762 28.1978 11.1111C28.1963 12.6454 27.5856 14.1164 26.5002 15.2007C25.4147 16.2851 23.9431 16.8941 22.4088 16.8941ZM22.4088 8.67812C21.9278 8.67911 21.4578 8.82267 21.0584 9.09066C20.6589 9.35865 20.3479 9.73905 20.1645 10.1838C19.9812 10.6285 19.9338 11.1176 20.0283 11.5892C20.1228 12.0609 20.355 12.4939 20.6956 12.8336C21.0361 13.1734 21.4697 13.4045 21.9416 13.4979C22.4135 13.5912 22.9025 13.5426 23.3468 13.3582C23.791 13.1737 24.1707 12.8617 24.4377 12.4616C24.7047 12.0615 24.847 11.5912 24.8468 11.1101C24.8458 10.4645 24.5884 9.84573 24.1312 9.38985C23.674 8.93398 23.0545 8.67833 22.4088 8.67913V8.67812Z" fill="white"/>
<path d="M22.4119 30.3534C19.111 30.3494 15.9465 29.0363 13.6125 26.7021C11.2785 24.3679 9.96562 21.2032 9.96191 17.9023H13.3129C13.3129 20.3158 14.2716 22.6305 15.9782 24.337C17.6848 26.0436 19.9994 27.0024 22.4129 27.0024C24.8264 27.0024 27.141 26.0436 28.8476 24.337C30.5542 22.6305 31.5129 20.3158 31.5129 17.9023H34.8639C34.8602 21.2036 33.5471 24.3686 31.2126 26.7028C28.8782 29.0371 25.7132 30.35 22.4119 30.3534Z" fill="white"/>
<path d="M6.08329 42.4863C5.72981 42.4853 5.39087 42.3457 5.13932 42.0973C5.01273 41.9732 4.9121 41.8251 4.84342 41.6616C4.77474 41.4981 4.73936 41.3226 4.73929 41.1453C4.7386 41.0576 4.74764 40.9701 4.76627 40.8843C4.784 40.7997 4.80878 40.7168 4.84031 40.6363C4.87603 40.5547 4.91885 40.4764 4.9683 40.4023C5.01472 40.3282 5.07123 40.2608 5.13627 40.2023C5.19667 40.1393 5.26374 40.0829 5.33628 40.0343C5.41062 39.9855 5.4889 39.9431 5.57029 39.9073C5.65074 39.8758 5.73368 39.851 5.81827 39.8333C6.03522 39.7913 6.25915 39.803 6.47056 39.8673C6.68197 39.9316 6.87447 40.0466 7.03129 40.2023C7.09173 40.263 7.14535 40.33 7.19126 40.4023C7.24313 40.4749 7.28615 40.5535 7.31931 40.6363C7.35382 40.7157 7.37864 40.799 7.39329 40.8843C7.41165 40.9701 7.42037 41.0576 7.41929 41.1453C7.41767 41.322 7.3838 41.4968 7.31931 41.6613C7.28565 41.7407 7.24513 41.817 7.19828 41.8893C7.14638 41.9616 7.09064 42.031 7.03129 42.0973C6.77687 42.3438 6.43748 42.483 6.08329 42.4863Z" fill="white"/>
<path d="M31.9586 41.1447C31.9586 40.9687 31.9932 40.7945 32.0605 40.6319C32.1279 40.4693 32.2266 40.3216 32.351 40.1971C32.4754 40.0727 32.6232 39.974 32.7858 39.9067C32.9483 39.8393 33.1226 39.8047 33.2985 39.8047C33.6536 39.8057 33.9939 39.9472 34.2449 40.1983C34.496 40.4494 34.6375 40.7896 34.6385 41.1447C34.6387 41.3207 34.6041 41.495 34.5368 41.6577C34.4695 41.8203 34.3708 41.968 34.2463 42.0925C34.1219 42.2169 33.9742 42.3156 33.8115 42.3829C33.6489 42.4502 33.4745 42.4848 33.2985 42.4847C33.1224 42.4853 32.9478 42.4511 32.785 42.384C32.6221 42.3169 32.4741 42.2183 32.3495 42.0937C32.225 41.9691 32.1263 41.8211 32.0592 41.6583C31.9921 41.4954 31.9579 41.3208 31.9586 41.1447ZM26.5165 41.1447C26.5165 40.7893 26.6578 40.4484 26.9091 40.1971C27.1604 39.9458 27.5012 39.8047 27.8566 39.8047C28.2116 39.8057 28.5518 39.9472 28.8029 40.1983C29.054 40.4494 29.1955 40.7896 29.1965 41.1447C29.1965 41.5 29.0554 41.8409 28.8041 42.0922C28.5528 42.3435 28.212 42.4847 27.8566 42.4847C27.6804 42.4852 27.506 42.4509 27.3431 42.3837C27.1803 42.3166 27.0324 42.2179 26.9078 42.0934C26.7833 41.9688 26.6846 41.8209 26.6175 41.6581C26.5503 41.4953 26.516 41.3208 26.5165 41.1447ZM21.0745 41.1447C21.0745 40.9687 21.1092 40.7945 21.1766 40.6319C21.2439 40.4693 21.3426 40.3216 21.467 40.1971C21.5915 40.0727 21.7392 39.974 21.9017 39.9067C22.0643 39.8393 22.2386 39.8047 22.4146 39.8047C22.7696 39.8057 23.1098 39.9472 23.3609 40.1983C23.612 40.4494 23.7535 40.7896 23.7546 41.1447C23.7547 41.3207 23.7201 41.495 23.6528 41.6577C23.5855 41.8203 23.4868 41.968 23.3624 42.0925C23.2379 42.2169 23.0901 42.3156 22.9275 42.3829C22.7649 42.4502 22.5906 42.4848 22.4146 42.4847C22.2385 42.4851 22.0641 42.4507 21.9014 42.3835C21.7387 42.3163 21.5909 42.2175 21.4665 42.093C21.3421 41.9685 21.2435 41.8206 21.1764 41.6578C21.1093 41.4951 21.075 41.3207 21.0756 41.1447H21.0745ZM15.6265 41.1447C15.6278 40.7897 15.7695 40.4496 16.0205 40.1986C16.2715 39.9476 16.6116 39.806 16.9666 39.8047C17.3219 39.8047 17.6628 39.9458 17.9141 40.1971C18.1654 40.4484 18.3066 40.7893 18.3066 41.1447C18.3072 41.3208 18.273 41.4954 18.2059 41.6583C18.1388 41.8211 18.0401 41.9691 17.9155 42.0937C17.791 42.2183 17.643 42.3169 17.4801 42.384C17.3172 42.4511 17.1427 42.4853 16.9666 42.4847C16.6112 42.4847 16.2703 42.3435 16.019 42.0922C15.7677 41.8409 15.6265 41.5 15.6265 41.1447ZM10.1855 41.1447C10.1866 40.7896 10.3281 40.4494 10.5792 40.1983C10.8302 39.9472 11.1705 39.8057 11.5256 39.8047C11.881 39.8047 12.2218 39.9458 12.4731 40.1971C12.7244 40.4484 12.8655 40.7893 12.8655 41.1447C12.8662 41.3208 12.832 41.4954 12.7649 41.6583C12.6978 41.8211 12.5991 41.9691 12.4745 42.0937C12.35 42.2183 12.202 42.3169 12.0391 42.384C11.8762 42.4511 11.7017 42.4853 11.5256 42.4847C11.3496 42.4847 11.1753 42.45 11.0128 42.3827C10.8502 42.3153 10.7024 42.2167 10.578 42.0922C10.4536 41.9678 10.3549 41.82 10.2875 41.6575C10.2202 41.4949 10.1855 41.3206 10.1855 41.1447Z" fill="white"/>
<path d="M38.7396 42.4863C38.6518 42.4874 38.5643 42.4784 38.4786 42.4594C38.3909 42.4455 38.3053 42.421 38.2236 42.3864C38.1443 42.3526 38.068 42.3121 37.9956 42.2653C37.9245 42.2151 37.8577 42.1593 37.7956 42.0983C37.732 42.0355 37.6757 41.9657 37.6276 41.8903C37.5762 41.8197 37.5336 41.7432 37.5006 41.6624C37.4654 41.5808 37.4405 41.4951 37.4266 41.4074C37.4072 41.3214 37.3981 41.2334 37.3996 41.1453C37.3985 41.0576 37.4076 40.97 37.4266 40.8843C37.4406 40.7989 37.4654 40.7155 37.5006 40.6364C37.5334 40.5536 37.5761 40.475 37.6276 40.4023C37.6744 40.3285 37.7309 40.2612 37.7956 40.2023C37.951 40.0467 38.1423 39.9317 38.3526 39.8673C38.5629 39.803 38.7857 39.7913 39.0016 39.8333C39.0883 39.8519 39.1735 39.8766 39.2566 39.9074C39.336 39.9433 39.4123 39.9857 39.4846 40.0343C39.557 40.083 39.6241 40.1394 39.6846 40.2023C39.7493 40.2612 39.8058 40.3285 39.8526 40.4023C39.9016 40.4765 39.9441 40.5548 39.9796 40.6364C40.0114 40.7167 40.0362 40.7997 40.0536 40.8843C40.0727 40.97 40.0817 41.0576 40.0806 41.1453C40.0806 41.3226 40.0453 41.4982 39.9766 41.6617C39.9079 41.8252 39.8073 41.9733 39.6806 42.0974C39.4297 42.3449 39.092 42.4845 38.7396 42.4863Z" fill="white"/>
</svg>
