<svg width="30" height="31" viewBox="0 0 30 31" fill="none" xmlns="http://www.w3.org/2000/svg">
<path d="M28.4118 8.73293C28.3673 8.68647 28.3139 8.64949 28.2548 8.62422C28.1957 8.59896 28.132 8.58594 28.0678 8.58594H14.2598C14.1952 8.586 14.1314 8.59915 14.0721 8.62461C14.0128 8.65007 13.9592 8.68729 13.9147 8.73404C13.8702 8.78078 13.8357 8.83607 13.8132 8.89656C13.7907 8.95705 13.7806 9.02147 13.7838 9.08594L14.1278 16.4859C14.1307 16.5484 14.1459 16.6098 14.1726 16.6664C14.1992 16.723 14.2368 16.7738 14.2831 16.8159C14.3294 16.858 14.3835 16.8906 14.4424 16.9118C14.5013 16.933 14.5637 16.9424 14.6263 16.9394C14.6888 16.9365 14.7501 16.9212 14.8067 16.8946C14.8633 16.8679 14.9141 16.8304 14.9562 16.7841C14.9984 16.7378 15.0309 16.6837 15.0521 16.6248C15.0733 16.5659 15.0827 16.5034 15.0798 16.4409L14.7588 9.54093H27.5708L26.6628 29.0649H15.9678C15.8415 29.0649 15.7204 29.1151 15.6312 29.2043C15.5419 29.2936 15.4918 29.4147 15.4918 29.5409C15.4918 29.6672 15.5419 29.7882 15.6312 29.8775C15.7204 29.9668 15.8415 30.0169 15.9678 30.0169H27.1118C27.2343 30.0171 27.3521 29.9699 27.4408 29.8854C27.5295 29.8008 27.5821 29.6853 27.5878 29.5629L28.5398 9.08694C28.5436 9.02233 28.5343 8.95761 28.5122 8.89674C28.4902 8.83588 28.456 8.78014 28.4118 8.73293Z" fill="#353D51"/>
<path d="M19.4989 26.2051H2.35588C2.22964 26.2051 2.10857 26.2552 2.0193 26.3445C1.93003 26.4338 1.87988 26.5548 1.87988 26.6811C1.88094 27.5647 2.23244 28.4119 2.85727 29.0367C3.48209 29.6615 4.32924 30.013 5.21288 30.0141H16.6419C17.5255 30.013 18.3727 29.6615 18.9975 29.0367C19.6223 28.4119 19.9738 27.5647 19.9749 26.6811C19.9749 26.5548 19.9247 26.4338 19.8355 26.3445C19.7462 26.2552 19.6251 26.2051 19.4989 26.2051ZM16.6419 29.0621H5.21288C4.66492 29.0616 4.13385 28.8724 3.70897 28.5264C3.28408 28.1804 2.99131 27.6986 2.87988 27.1621H18.9719C18.8606 27.6981 18.5682 28.1795 18.144 28.5255C17.7197 28.8714 17.1893 29.0609 16.6419 29.0621Z" fill="#353D51"/>
<path d="M19.4992 23.3496H2.35617C1.85093 23.3496 1.36639 23.5503 1.00913 23.9076C0.651877 24.2648 0.451172 24.7494 0.451172 25.2546C0.451172 25.7598 0.651877 26.2444 1.00913 26.6017C1.36639 26.9589 1.85093 27.1596 2.35617 27.1596H19.4992C20.0044 27.1596 20.489 26.9589 20.8462 26.6017C21.2035 26.2444 21.4042 25.7598 21.4042 25.2546C21.4042 24.7494 21.2035 24.2648 20.8462 23.9076C20.489 23.5503 20.0044 23.3496 19.4992 23.3496ZM19.4992 26.2066H2.35617C2.11487 26.1909 1.88857 26.084 1.72322 25.9076C1.55787 25.7312 1.46585 25.4984 1.46585 25.2566C1.46585 25.0148 1.55787 24.7821 1.72322 24.6056C1.88857 24.4292 2.11487 24.3223 2.35617 24.3066H19.4992C19.7405 24.3223 19.9668 24.4292 20.1321 24.6056C20.2975 24.7821 20.3895 25.0148 20.3895 25.2566C20.3895 25.4984 20.2975 25.7312 20.1321 25.9076C19.9668 26.084 19.7405 26.1909 19.4992 26.2066Z" fill="#353D51"/>
<path d="M20.9269 14.2988C19.8714 14.2983 18.8456 14.6486 18.011 15.2947C17.1763 15.9407 16.58 16.8459 16.3159 17.8678C16.3003 17.9284 16.2967 17.9914 16.3054 18.0533C16.3142 18.1152 16.335 18.1748 16.3668 18.2287C16.3985 18.2825 16.4406 18.3296 16.4905 18.3672C16.5405 18.4048 16.5974 18.4322 16.6579 18.4478C16.7184 18.4635 16.7815 18.467 16.8434 18.4583C16.9053 18.4495 16.9649 18.4287 17.0187 18.3969C17.0726 18.3652 17.1196 18.3231 17.1573 18.2732C17.1949 18.2232 17.2223 18.1664 17.2379 18.1058C17.4307 17.3637 17.8431 16.697 18.4212 16.1932C18.9992 15.6894 19.7159 15.3719 20.4774 15.2822C21.2389 15.1925 22.0098 15.3349 22.689 15.6907C23.3683 16.0465 23.9243 16.5991 24.2842 17.2762C24.6441 17.9533 24.7911 18.7233 24.7061 19.4853C24.621 20.2474 24.3079 20.966 23.8076 21.5471C23.3072 22.1281 22.6431 22.5446 21.9022 22.7419C21.1612 22.9392 20.3779 22.9082 19.6549 22.6528C19.5355 22.6107 19.4043 22.6176 19.2901 22.6722C19.1759 22.7268 19.0881 22.8245 19.0459 22.9438C19.0037 23.0632 19.0107 23.1944 19.0653 23.3086C19.1198 23.4228 19.2175 23.5107 19.3369 23.5528C19.9906 23.7838 20.6869 23.8692 21.3771 23.8031C22.0673 23.7371 22.7348 23.521 23.3328 23.1702C23.9309 22.8194 24.4451 22.3421 24.8396 21.7719C25.234 21.2017 25.4992 20.5522 25.6165 19.8689C25.7339 19.1855 25.7006 18.4848 25.519 17.8156C25.3374 17.1465 25.0119 16.5251 24.5652 15.9948C24.1185 15.4645 23.5614 15.0382 22.9328 14.7456C22.3042 14.453 21.6192 14.3012 20.9259 14.3008L20.9269 14.2988Z" fill="#353D51"/>
<path d="M11.8801 15.7305H9.97207C7.82382 15.7305 5.76355 16.5839 4.24451 18.1029C2.72546 19.6219 1.87207 21.6822 1.87207 23.8305C1.87207 23.9567 1.92222 24.0778 2.01149 24.1671C2.10076 24.2563 2.22183 24.3065 2.34807 24.3065H19.4991C19.6253 24.3065 19.7464 24.2563 19.8357 24.1671C19.9249 24.0778 19.9751 23.9567 19.9751 23.8305C19.9751 21.6831 19.1224 19.6236 17.6044 18.1047C16.0864 16.5858 14.0275 15.7318 11.8801 15.7305ZM2.84807 23.3485C2.97091 21.5412 3.77491 19.8479 5.09774 18.6105C6.42057 17.373 8.16367 16.6836 9.97507 16.6815H11.8751C13.6865 16.6836 15.4296 17.373 16.7524 18.6105C18.0752 19.8479 18.8792 21.5412 19.0021 23.3485H2.84807Z" fill="#353D51"/>
<path d="M7.11704 18.5859H6.16504V19.5379H7.11704V18.5859Z" fill="#353D51"/>
<path d="M6.64145 20.4922H5.68945V21.4442H6.64145V20.4922Z" fill="#353D51"/>
<path d="M12.3553 18.1113H11.4033V19.0633H12.3553V18.1113Z" fill="#353D51"/>
<path d="M15.2118 20.4922H14.2598V21.4442H15.2118V20.4922Z" fill="#353D51"/>
<path d="M10.9276 20.9668H9.97559V21.9188H10.9276V20.9668Z" fill="#353D51"/>
<path d="M29.0234 6.68359H12.8324C12.7062 6.68359 12.5851 6.73375 12.4959 6.82301C12.4066 6.91228 12.3564 7.03336 12.3564 7.1596V9.0596C12.3564 9.18584 12.4066 9.30691 12.4959 9.39618C12.5851 9.48545 12.7062 9.5356 12.8324 9.5356H29.0224C29.1487 9.5356 29.2698 9.48545 29.359 9.39618C29.4483 9.30691 29.4984 9.18584 29.4984 9.0596V7.1596C29.4984 7.03353 29.4484 6.9126 29.3594 6.82336C29.2703 6.73413 29.1495 6.68386 29.0234 6.68359ZM28.5474 8.5836H13.3084V7.6316H28.5464L28.5474 8.5836Z" fill="#353D51"/>
<path d="M16.6314 7.05875L15.2024 0.391747C15.1758 0.268289 15.1014 0.160422 14.9953 0.0918779C14.8893 0.0233334 14.7603 -0.000274848 14.6369 0.0262468C14.5134 0.0527685 14.4055 0.127247 14.337 0.233299C14.2684 0.339351 14.2448 0.468289 14.2714 0.591747L15.7004 7.25875C15.7232 7.36513 15.7818 7.46047 15.8664 7.52888C15.9511 7.5973 16.0566 7.63466 16.1654 7.63475C16.199 7.63471 16.2325 7.63102 16.2654 7.62375C16.3265 7.61068 16.3845 7.5857 16.4359 7.55024C16.4874 7.51477 16.5314 7.46952 16.5654 7.41705C16.5994 7.36459 16.6227 7.30594 16.634 7.24446C16.6453 7.18298 16.6444 7.11988 16.6314 7.05875Z" fill="#353D51"/>
</svg>
