<svg width="110" height="27" viewBox="0 0 110 27" fill="none" xmlns="http://www.w3.org/2000/svg">
<path d="M28.5332 20.0675V2.8125H38.7222V4.98151H30.6452V10.2885H37.8992V12.4625H30.6452V17.8985H39.3122V20.0675H28.5332Z" fill="#DC181B"/>
<path d="M50.0541 20.0732L46.5291 15.4632L43.0291 20.0732H40.5491L45.3341 13.9132L40.2871 7.57422H43.0581L46.5251 12.3342L50.0251 7.57422H52.7701L47.9861 13.9132L52.5381 20.0732H50.0541Z" fill="#DC181B"/>
<path d="M64.7745 13.8148C64.7745 11.0448 63.0026 9.36977 59.7966 9.51477C58.2656 9.58777 55.8825 10.7008 56.1055 14.6818C56.2412 15.7241 56.7554 16.6801 57.5504 17.3678C58.3454 18.0555 59.3656 18.4267 60.4166 18.4108C62.9246 18.4108 64.7745 16.9527 64.7745 13.8107V13.8148ZM55.9506 18.1877V26.7028H53.8105V13.9598C53.8105 10.7248 56.2996 7.25977 60.1646 7.25977C64.0646 7.25977 67.0316 9.74477 67.0316 13.8118C67.0659 14.6744 66.9267 15.5352 66.6222 16.3431C66.3177 17.151 65.8542 17.8896 65.259 18.515C64.6639 19.1405 63.9493 19.6401 63.1575 19.9843C62.3657 20.3284 61.5128 20.5102 60.6495 20.5187C58.9445 20.5187 56.7495 19.8068 55.9495 18.1848L55.9506 18.1877Z" fill="#DC181B"/>
<path d="M68.8115 20.0729V7.5729H70.8935V8.89993C71.4584 8.33803 72.1369 7.9034 72.8835 7.62521C73.6302 7.34701 74.4277 7.23164 75.2225 7.28689V9.56289C74.9905 9.53889 72.4525 9.22394 70.8935 12.4929V20.0709L68.8115 20.0729Z" fill="#DC181B"/>
<path d="M81.8251 9.37067C80.8665 9.40242 79.9554 9.79546 79.2745 10.4709C78.5937 11.1464 78.1935 12.0544 78.1541 13.0127H85.8341C85.8314 12.5034 85.7229 12.0003 85.5155 11.5352C85.3081 11.07 85.0063 10.653 84.6293 10.3106C84.2523 9.96821 83.8083 9.70789 83.3254 9.54608C82.8425 9.38428 82.3313 9.32454 81.8241 9.37067H81.8251ZM75.8491 13.8157C75.8086 12.9774 75.9374 12.1396 76.2276 11.3522C76.5179 10.5647 76.9637 9.84374 77.5386 9.2323C78.1134 8.62086 78.8055 8.13144 79.5736 7.79321C80.3416 7.45499 81.1699 7.27491 82.0091 7.26367C86.4351 7.26367 88.1011 10.2137 88.1011 13.9707V14.9827H78.1841C78.2839 16.0065 78.7809 16.9504 79.5684 17.6122C80.356 18.2739 81.3714 18.6007 82.3971 18.5226C83.0453 18.5307 83.6876 18.3995 84.2807 18.138C84.8738 17.8765 85.4039 17.4907 85.8351 17.0067L87.2101 18.4447C86.5608 19.1027 85.7873 19.6251 84.9345 19.9816C84.0816 20.3382 83.1664 20.5217 82.2421 20.5217C78.5131 20.5217 75.8501 17.7217 75.8501 13.8147L75.8491 13.8157Z" fill="#DC181B"/>
<path d="M89.1192 18.3184C89.1192 18.3184 90.6692 16.9484 90.6692 16.9434C90.9421 17.2605 91.2336 17.561 91.5422 17.8434C91.8882 18.136 92.2951 18.3477 92.7332 18.4634C94.0792 18.8214 96.5102 18.7054 96.6752 16.8804C96.7752 15.8394 95.9872 15.2804 95.1162 14.9484C93.9732 14.5174 92.7342 14.3625 91.6102 13.8635C90.993 13.6418 90.4596 13.2343 90.0836 12.6971C89.7075 12.1598 89.5072 11.5193 89.5102 10.8635C89.5102 7.10547 94.8472 6.47546 97.2782 8.23346C97.727 8.60393 98.1478 9.00702 98.5372 9.43945L96.9682 10.6505C96.6023 10.1725 96.1225 9.79395 95.5726 9.54938C95.0226 9.30481 94.4201 9.20203 93.8202 9.25043C93.0202 9.24043 91.8642 9.58941 91.6312 10.4854C91.3112 11.7204 92.7252 12.1854 93.6312 12.4274C94.9117 12.6335 96.1528 13.0352 97.3112 13.6184C97.9956 14.1148 98.4936 14.8264 98.7255 15.6394C98.9574 16.4524 98.9098 17.3197 98.5902 18.1024C97.9602 19.7824 96.1402 20.4514 94.4642 20.5234C93.5336 20.5855 92.6005 20.4468 91.7281 20.1167C90.8558 19.7866 90.0647 19.273 89.4082 18.6104C89.3792 18.5864 89.1172 18.3245 89.1172 18.3245L89.1192 18.3184Z" fill="#DC181B"/>
<path d="M100.003 18.3184C100.003 18.3184 101.562 16.9484 101.562 16.9434C101.831 17.2606 102.119 17.5611 102.424 17.8434C102.77 18.136 103.177 18.3477 103.615 18.4634C104.961 18.8214 107.392 18.7054 107.566 16.8804C107.666 15.8394 106.878 15.2804 105.997 14.9484C104.854 14.5174 103.615 14.3625 102.491 13.8635C101.874 13.6417 101.341 13.2342 100.964 12.697C100.588 12.1597 100.388 11.5192 100.391 10.8635C100.391 7.10547 105.727 6.47546 108.168 8.23346C108.612 8.60629 109.029 9.00924 109.417 9.43945L107.848 10.6505C107.483 10.174 107.005 9.79639 106.457 9.55188C105.909 9.30737 105.308 9.20375 104.71 9.25043C103.896 9.24043 102.744 9.58941 102.521 10.4854C102.192 11.7204 103.615 12.1854 104.535 12.4274C105.809 12.6365 107.043 13.0381 108.196 13.6184C108.88 14.1149 109.378 14.8267 109.61 15.6397C109.841 16.4526 109.794 17.3198 109.474 18.1024C108.844 19.7824 107.024 20.4514 105.358 20.5234C104.426 20.5847 103.492 20.4456 102.618 20.1157C101.744 19.7857 100.952 19.2724 100.293 18.6104C100.274 18.5864 100.002 18.3245 100.002 18.3245L100.003 18.3184Z" fill="#DC181B"/>
<path d="M8.41058 5.27148L5.28253 13.8135H11.8196L8.41058 5.27148ZM14.2316 20.0715L12.7015 15.9554H4.37256L2.84155 20.0715H0.643555L7.34357 2.8125H9.75555L16.4285 20.0715H14.2316Z" fill="#F8820C"/>
<path d="M17.7197 20.0675H19.8597V2.8125H17.7197V20.0665V20.0675Z" fill="#F8820C"/>
<path d="M23.1211 20.078H25.2711V7.83203H23.1211V20.074V20.078Z" fill="#F8820C"/>
<path d="M27.3696 3.85358V3.63055C26.57 3.59868 25.8122 3.26547 25.2481 2.69788C24.684 2.13028 24.3556 1.37032 24.3287 0.570557C24.2897 0.570557 24.2606 0.560547 24.2416 0.560547H24.1417C24.1127 0.560547 24.0937 0.570557 24.0547 0.570557C24.0278 1.37032 23.6993 2.13028 23.1353 2.69788C22.5712 3.26547 21.8133 3.59868 21.0137 3.63055V3.85358C21.814 3.88312 22.5733 4.21554 23.1378 4.78363C23.7024 5.35172 24.0301 6.11305 24.0547 6.91357C24.1037 6.91357 24.1417 6.91357 24.1907 6.91357C24.2397 6.91357 24.2777 6.91357 24.3267 6.91357C24.3512 6.11305 24.6789 5.35172 25.2435 4.78363C25.808 4.21554 26.5673 3.88312 27.3677 3.85358H27.3696Z" fill="#F8820C"/>
</svg>
