<svg width="121" height="26" viewBox="0 0 121 26" fill="none" xmlns="http://www.w3.org/2000/svg">
<path fill-rule="evenodd" clip-rule="evenodd" d="M9.64648 18.3873C10.6294 19.9905 12.0061 21.3158 13.6456 22.2369C15.2851 23.1581 17.1329 23.6446 19.0135 23.6503C24.8075 23.6503 27.9985 18.6503 27.9985 18.6503L28.4095 19.9823C25.7265 23.4713 20.9334 25.5733 15.5724 25.5733C9.39845 25.5733 4.07249 22.6283 1.62549 18.3813C0.689838 16.7829 0.194029 14.9653 0.188477 13.1133C0.188477 6.23128 7.07545 0.654297 15.5724 0.654297C21.5724 0.654297 26.4094 3.22528 28.9474 6.95428L18.8745 12.9863L24.6235 4.15826C22.928 2.97464 20.9385 2.2825 18.8745 2.15826C16.0198 2.18688 13.291 3.33792 11.2783 5.36249C9.26548 7.38705 8.13041 10.1225 8.11847 12.9773C8.11854 14.8885 8.64775 16.7624 9.64746 18.3913L9.64648 18.3873Z" fill="#E50019"/>
<path fill-rule="evenodd" clip-rule="evenodd" d="M36.6199 18.3846C36.5899 18.5858 36.5748 18.789 36.5749 18.9925C36.5749 20.0677 37.002 21.0989 37.7623 21.8592C38.5225 22.6194 39.5537 23.0466 40.6289 23.0466C41.7041 23.0466 42.7352 22.6194 43.4955 21.8592C44.2558 21.0989 44.6829 20.0677 44.6829 18.9925C44.683 18.7884 44.668 18.5845 44.6379 18.3825C44.4922 17.4236 44.0076 16.5487 43.2721 15.9165C42.5366 15.2843 41.5988 14.9366 40.6289 14.9366C39.659 14.9366 38.7212 15.2843 37.9857 15.9165C37.2501 16.5487 36.7656 17.4236 36.6199 18.3825V18.3846ZM51.6629 18.3846L53.6779 25.1716H46.6099L45.2199 20.5235C44.2889 23.2015 41.1489 25.1716 37.4199 25.1716C32.9569 25.1716 29.3379 22.3516 29.3379 18.8716C29.3379 18.7086 29.3459 18.5475 29.3619 18.3825C29.6799 15.1365 33.1619 12.5746 37.4199 12.5746C39.6318 12.5321 41.7848 13.2895 43.4829 14.7076L41.5579 8.27055H33.4469C35.8172 7.10135 38.2681 6.10314 40.7809 5.28355C46.7659 3.10655 48.6629 8.27055 48.6629 8.27055L51.6629 18.3816V18.3846Z" fill="#E50019"/>
<path fill-rule="evenodd" clip-rule="evenodd" d="M74.2606 18.3807V25.1677H66.9876V10.2557C66.9873 9.79265 66.8252 9.34427 66.5294 8.98798C66.2335 8.63169 65.8226 8.38988 65.3675 8.30438C64.9124 8.21888 64.4416 8.29501 64.0367 8.51965C63.6317 8.7443 63.318 9.10334 63.1496 9.53473V25.1677H56.0126V8.26776H51.8496C51.8496 8.26776 57.6396 4.75977 59.6496 4.75977C60.5444 4.7675 61.4028 5.11544 62.0504 5.73297C62.698 6.3505 63.0863 7.19134 63.1366 8.08478C65.9366 6.57478 68.7146 4.75977 70.6246 4.75977C71.5716 4.75964 72.4812 5.12874 73.1603 5.78864C73.8395 6.44853 74.2345 7.34722 74.2616 8.29376V18.3787L74.2606 18.3807Z" fill="#E50019"/>
<path fill-rule="evenodd" clip-rule="evenodd" d="M85.4627 18.3809L86.4737 21.7258C86.4866 22.4173 86.7712 23.0758 87.2661 23.5588C87.7609 24.0419 88.4262 24.3106 89.1177 24.3068C89.8277 24.3068 90.5086 24.0248 91.0106 23.5228C91.5127 23.0207 91.7947 22.3398 91.7947 21.6298C91.7946 21.5266 91.7889 21.4235 91.7777 21.3209L90.9167 18.3809L87.8957 8.05482C87.822 7.40068 87.5098 6.79662 87.019 6.35798C86.5282 5.91934 85.893 5.67686 85.2347 5.67683C84.5398 5.72685 83.8821 6.01017 83.3684 6.48084C82.8547 6.95151 82.5151 7.58194 82.4047 8.26984L85.4627 18.3809ZM97.0357 18.3809C96.212 20.8845 94.4754 22.986 92.1718 24.2666C89.8681 25.5472 87.1666 25.913 84.6054 25.2911C82.0441 24.6692 79.8112 23.1052 78.3514 20.9108C76.8916 18.7163 76.312 16.0525 76.7282 13.4499C77.1444 10.8473 78.5257 8.49702 80.5971 6.86726C82.6685 5.2375 85.2778 4.44786 87.9053 4.65571C90.5327 4.86355 92.9854 6.05361 94.7748 7.98878C96.5642 9.92394 97.5589 12.4622 97.5607 15.0978C97.5615 16.2131 97.3843 17.3214 97.0357 18.3809Z" fill="#E50019"/>
<path fill-rule="evenodd" clip-rule="evenodd" d="M109.076 18.3807V25.1677H101.939V8.26776H97.9473C97.9473 8.26776 103.567 4.75977 105.575 4.75977C106.47 4.76748 107.329 5.1154 107.976 5.73291C108.624 6.35042 109.013 7.19126 109.063 8.08478C111.863 6.57478 114.641 4.75977 116.551 4.75977C117.498 4.75965 118.408 5.12877 119.087 5.7887C119.766 6.44862 120.161 7.34731 120.187 8.29376V25.1658H112.914V10.2557C112.914 9.79265 112.752 9.34427 112.456 8.98798C112.16 8.63169 111.749 8.38988 111.294 8.30438C110.839 8.21888 110.368 8.29501 109.963 8.51965C109.558 8.7443 109.245 9.10334 109.076 9.53473V18.3807Z" fill="#E50019"/>
</svg>
