<svg width="111" height="27" viewBox="0 0 111 27" fill="none" xmlns="http://www.w3.org/2000/svg">
<path d="M28.7969 20.0675V2.8125H38.9859V4.98151H30.9089V10.2885H38.1629V12.4625H30.9089V17.8985H39.5759V20.0675H28.7969Z" fill="#DC181B"/>
<path d="M50.3178 20.0732L46.7928 15.4632L43.2928 20.0732H40.8128L45.5978 13.9132L40.5508 7.57422H43.3218L46.7888 12.3342L50.2888 7.57422H53.0338L48.2498 13.9132L52.8018 20.0732H50.3178Z" fill="#DC181B"/>
<path d="M65.0382 13.8148C65.0382 11.0448 63.2662 9.36977 60.0602 9.51477C58.5292 9.58777 56.1462 10.7008 56.3692 14.6818C56.5048 15.7241 57.0191 16.6801 57.8141 17.3678C58.6091 18.0555 59.6292 18.4267 60.6802 18.4108C63.1882 18.4108 65.0382 16.9527 65.0382 13.8107V13.8148ZM56.2142 18.1877V26.7028H54.0742V13.9598C54.0742 10.7248 56.5632 7.25977 60.4282 7.25977C64.3282 7.25977 67.2952 9.74477 67.2952 13.8118C67.3295 14.6744 67.1903 15.5352 66.8859 16.3431C66.5814 17.151 66.1178 17.8896 65.5227 18.515C64.9276 19.1405 64.2129 19.6401 63.4211 19.9843C62.6294 20.3284 61.7765 20.5102 60.9132 20.5187C59.2082 20.5187 57.0132 19.8068 56.2132 18.1848L56.2142 18.1877Z" fill="#DC181B"/>
<path d="M69.0752 20.0729V7.5729H71.1572V8.89993C71.7221 8.33803 72.4006 7.9034 73.1472 7.62521C73.8938 7.34701 74.6914 7.23164 75.4862 7.28689V9.56289C75.2542 9.53889 72.7162 9.22394 71.1572 12.4929V20.0709L69.0752 20.0729Z" fill="#DC181B"/>
<path d="M82.0888 9.37067C81.1302 9.40242 80.2191 9.79546 79.5382 10.4709C78.8574 11.1464 78.4572 12.0544 78.4178 13.0127H86.0978C86.095 12.5034 85.9865 12.0003 85.7791 11.5352C85.5717 11.07 85.27 10.653 84.893 10.3106C84.516 9.96821 84.0719 9.70789 83.5891 9.54608C83.1062 9.38428 82.595 9.32454 82.0878 9.37067H82.0888ZM76.1127 13.8157C76.0723 12.9774 76.201 12.1396 76.4913 11.3522C76.7815 10.5647 77.2274 9.84374 77.8023 9.2323C78.3771 8.62086 79.0692 8.13144 79.8372 7.79321C80.6053 7.45499 81.4336 7.27491 82.2728 7.26367C86.6988 7.26367 88.3648 10.2137 88.3648 13.9707V14.9827H78.4478C78.5476 16.0065 79.0446 16.9504 79.8321 17.6122C80.6197 18.2739 81.6351 18.6007 82.6608 18.5226C83.3089 18.5307 83.9513 18.3995 84.5444 18.138C85.1375 17.8765 85.6676 17.4907 86.0988 17.0067L87.4738 18.4447C86.8245 19.1027 86.051 19.6251 85.1981 19.9816C84.3453 20.3382 83.4301 20.5217 82.5058 20.5217C78.7768 20.5217 76.1138 17.7217 76.1138 13.8147L76.1127 13.8157Z" fill="#DC181B"/>
<path d="M89.3829 18.3184C89.3829 18.3184 90.9329 16.9484 90.9329 16.9434C91.2057 17.2605 91.4972 17.561 91.8058 17.8434C92.1519 18.136 92.5588 18.3477 92.9969 18.4634C94.3429 18.8214 96.7738 18.7054 96.9388 16.8804C97.0388 15.8394 96.2509 15.2804 95.3799 14.9484C94.2369 14.5174 92.9978 14.3625 91.8738 13.8635C91.2566 13.6418 90.7233 13.2343 90.3472 12.6971C89.9712 12.1598 89.7708 11.5193 89.7739 10.8635C89.7739 7.10547 95.1109 6.47546 97.5419 8.23346C97.9906 8.60393 98.4115 9.00702 98.8009 9.43945L97.2319 10.6505C96.866 10.1725 96.3862 9.79395 95.8362 9.54938C95.2863 9.30481 94.6838 9.20203 94.0839 9.25043C93.2839 9.24043 92.1279 9.58941 91.8949 10.4854C91.5749 11.7204 92.9889 12.1854 93.8949 12.4274C95.1753 12.6335 96.4165 13.0352 97.5749 13.6184C98.2593 14.1148 98.7572 14.8264 98.9891 15.6394C99.221 16.4524 99.1734 17.3197 98.8539 18.1024C98.2239 19.7824 96.4038 20.4514 94.7278 20.5234C93.7972 20.5855 92.8641 20.4468 91.9918 20.1167C91.1195 19.7866 90.3283 19.273 89.6719 18.6104C89.6429 18.5864 89.3809 18.3245 89.3809 18.3245L89.3829 18.3184Z" fill="#DC181B"/>
<path d="M100.267 18.3184C100.267 18.3184 101.826 16.9484 101.826 16.9434C102.095 17.2606 102.382 17.5611 102.688 17.8434C103.034 18.136 103.441 18.3477 103.879 18.4634C105.225 18.8214 107.656 18.7054 107.83 16.8804C107.93 15.8394 107.142 15.2804 106.261 14.9484C105.118 14.5174 103.879 14.3625 102.755 13.8635C102.138 13.6417 101.604 13.2342 101.228 12.697C100.852 12.1597 100.652 11.5192 100.655 10.8635C100.655 7.10547 105.991 6.47546 108.432 8.23346C108.875 8.60629 109.293 9.00924 109.681 9.43945L108.112 10.6505C107.747 10.174 107.269 9.79639 106.72 9.55188C106.172 9.30737 105.572 9.20375 104.974 9.25043C104.16 9.24043 103.008 9.58941 102.785 10.4854C102.456 11.7204 103.879 12.1854 104.799 12.4274C106.072 12.6365 107.307 13.0381 108.46 13.6184C109.144 14.1149 109.642 14.8267 109.873 15.6397C110.105 16.4526 110.057 17.3198 109.738 18.1024C109.108 19.7824 107.288 20.4514 105.622 20.5234C104.69 20.5847 103.756 20.4456 102.882 20.1157C102.008 19.7857 101.215 19.2724 100.557 18.6104C100.538 18.5864 100.266 18.3245 100.266 18.3245L100.267 18.3184Z" fill="#DC181B"/>
<path d="M8.67426 5.27148L5.5462 13.8135H12.0833L8.67426 5.27148ZM14.4952 20.0715L12.9652 15.9554H4.63623L3.10522 20.0715H0.907227L7.60724 2.8125H10.0192L16.6922 20.0715H14.4952Z" fill="#F8820C"/>
<path d="M17.9834 20.0675H20.1234V2.8125H17.9834V20.0665V20.0675Z" fill="#F8820C"/>
<path d="M23.3848 20.078H25.5347V7.83203H23.3848V20.074V20.078Z" fill="#F8820C"/>
<path d="M27.6333 3.85358V3.63055C26.8337 3.59868 26.0759 3.26547 25.5118 2.69788C24.9477 2.13028 24.6192 1.37032 24.5923 0.570557C24.5533 0.570557 24.5243 0.560547 24.5053 0.560547H24.4053C24.3763 0.560547 24.3574 0.570557 24.3184 0.570557C24.2915 1.37032 23.963 2.13028 23.3989 2.69788C22.8349 3.26547 22.0769 3.59868 21.2773 3.63055V3.85358C22.0777 3.88312 22.8369 4.21554 23.4015 4.78363C23.966 5.35172 24.2938 6.11305 24.3184 6.91357C24.3674 6.91357 24.4053 6.91357 24.4543 6.91357C24.5033 6.91357 24.5413 6.91357 24.5903 6.91357C24.6149 6.11305 24.9426 5.35172 25.5071 4.78363C26.0717 4.21554 26.831 3.88312 27.6313 3.85358H27.6333Z" fill="#F8820C"/>
</svg>
