<svg id="saudi-arabia" xmlns="http://www.w3.org/2000/svg" width="30" height="24" viewBox="0 0 30 24">
  <rect id="Rectangle_5419" data-name="Rectangle 5419" width="30" height="24" rx="3" fill="#73af00"/>
  <g id="Group_13563" data-name="Group 13563" transform="translate(6.339 6.56)">
    <path id="Path_95089" data-name="Path 95089" d="M72.6,150.535c.049.312.237.41.4.4a.4.4,0,0,0,.363-.379v-1.071a.1.1,0,1,1,.195,0v1.076a.389.389,0,0,0,.534.361l.1-.039c.009.9-.046,1.689-.047,1.7a.2.2,0,0,0,.18.208h.014a.2.2,0,0,0,.194-.181c0-.063.065-.929.047-1.887l.059-.024a.2.2,0,0,1,.159.007.556.556,0,0,0,.642-.1l.035-.035a.581.581,0,0,0,.141-.6l-.166-.5a.195.195,0,0,0,.144-.36l-.389-.195a.195.195,0,0,0-.272.236l.313.94a.194.194,0,0,1-.047.2l-.035.035a.167.167,0,0,1-.193.031.582.582,0,0,0-.4-.04,6.715,6.715,0,0,0-.238-1.678.195.195,0,0,0-.37.123,6.69,6.69,0,0,1,.223,1.7l-.233.093v-1.076a.487.487,0,1,0-.974,0v.943l-.2-.981a.195.195,0,1,0-.382.077Z" transform="translate(-72.332 -148.107)" fill="#f5f5f5"/>
    <path id="Path_95090" data-name="Path 95090" d="M80.893,144.942a.2.2,0,0,0,.195-.195v-.195a.195.195,0,0,0-.389,0v.195A.2.2,0,0,0,80.893,144.942Z" transform="translate(-80.254 -144.151)" fill="#f5f5f5"/>
    <path id="Path_95091" data-name="Path 95091" d="M122.436,144.746h.195a.195.195,0,0,0,0-.389h-.195a.195.195,0,0,0,0,.389Z" transform="translate(-119.85 -144.15)" fill="#f5f5f5"/>
    <path id="Path_95092" data-name="Path 95092" d="M77.611,206.7l-.974.584a.195.195,0,0,0,.2.334l.974-.584a.195.195,0,1,0-.2-.334Z" transform="translate(-76.293 -203.542)" fill="#f5f5f5"/>
    <path id="Path_95093" data-name="Path 95093" d="M92.023,151.608l0,0a.444.444,0,0,0,.09.183.383.383,0,0,0,.332.129.537.537,0,0,0,.405-.213.351.351,0,0,0,.041.024.369.369,0,0,0,.343-.011.739.739,0,0,0,.349-.686.2.2,0,0,0-.2-.184.2.2,0,0,0-.186.2s0,.234-.137.319A.475.475,0,0,1,93,151.2a.195.195,0,0,0-.387.032c0,.028-.006.278-.2.3a.476.476,0,0,1,0-.255.195.195,0,0,0-.3-.206l-.109.074c-.052-1.129-.17-2.445-.172-2.462a.195.195,0,0,0-.388.035c0,.018.139,1.541.182,2.7l-.03.029a.5.5,0,0,0-.426-.335.711.711,0,0,0-.686.434.461.461,0,0,0,.149.581.649.649,0,0,0,.581.027,1.628,1.628,0,0,1-.317.6.817.817,0,0,1-.622.317.511.511,0,0,1-.378-.161,1.112,1.112,0,0,1-.206-.7.2.2,0,0,0-.184-.2.191.191,0,0,0-.205.184,1.494,1.494,0,0,0,.306.979.893.893,0,0,0,.652.289H90.3a1.186,1.186,0,0,0,.894-.453,2.015,2.015,0,0,0,.446-1,2.207,2.207,0,0,1-.934,1.748.972.972,0,0,1-.975.071.835.835,0,0,1-.428-.824.195.195,0,0,0-.386-.048,1.223,1.223,0,0,0,.643,1.221,1.323,1.323,0,0,0,.59.141,1.441,1.441,0,0,0,.764-.23,2.589,2.589,0,0,0,1.118-2.081C92.029,151.89,92.027,151.753,92.023,151.608Zm-1.174.2c-.035-.023-.008-.1,0-.111a.331.331,0,0,1,.272-.191h.016c.025,0,.091.009.119.156,0,.016.006.032.008.048C91.044,151.838,90.9,151.842,90.849,151.809Z" transform="translate(-88.08 -148.108)" fill="#f5f5f5"/>
    <path id="Path_95094" data-name="Path 95094" d="M71.962,240.719a.2.2,0,0,0-.266.069.408.408,0,0,1-.033.046l-.006-.016a1.31,1.31,0,0,1,.006-.661.195.195,0,0,0-.376-.1,1.677,1.677,0,0,0,.006.9c.089.238.227.3.326.306h.026a.511.511,0,0,0,.388-.278A.194.194,0,0,0,71.962,240.719Z" transform="translate(-71.224 -235.227)" fill="#f5f5f5"/>
    <path id="Path_95095" data-name="Path 95095" d="M159.65,146.109a.193.193,0,0,0,.12-.042l.982-.771a.187.187,0,0,0,.032-.038.488.488,0,1,0-.56-.043l-.695.546a.195.195,0,0,0,.12.348Zm.884-1.363a.1.1,0,1,1-.1.1A.1.1,0,0,1,160.534,144.745Z" transform="translate(-155.319 -144.149)" fill="#f5f5f5"/>
    <path id="Path_95096" data-name="Path 95096" d="M171.705,177.6a.194.194,0,0,0-.246.123.6.6,0,0,0,.076.574.393.393,0,0,0,.291.111.856.856,0,0,0,.269-.05.195.195,0,1,0-.123-.369.679.679,0,0,1-.159.034.373.373,0,0,1,.016-.178A.2.2,0,0,0,171.705,177.6Z" transform="translate(-166.721 -175.825)" fill="#f5f5f5"/>
    <path id="Path_95097" data-name="Path 95097" d="M222.254,144.954a.195.195,0,0,0,.241-.132l.114-.389a.195.195,0,0,0-.374-.109l-.114.389A.2.2,0,0,0,222.254,144.954Z" transform="translate(-215.041 -143.984)" fill="#f5f5f5"/>
    <path id="Path_95098" data-name="Path 95098" d="M196.284,140.89a.195.195,0,0,0,.2-.336c-.039-.023-.034-.087-.032-.1a.153.153,0,0,1,.089-.13.195.195,0,0,0-.116-.372.535.535,0,0,0-.361.458A.48.48,0,0,0,196.284,140.89Z" transform="translate(-190.206 -139.943)" fill="#f5f5f5"/>
    <path id="Path_95099" data-name="Path 95099" d="M163.978,227.442a.195.195,0,0,0-.037.386.365.365,0,0,1,.037.2.195.195,0,1,0,.389,0C164.367,227.449,163.994,227.442,163.978,227.442Z" transform="translate(-159.444 -223.34)" fill="#f5f5f5"/>
    <path id="Path_95100" data-name="Path 95100" d="M230.633,198.918a.454.454,0,0,0,.073.006.666.666,0,0,0,.461-.23.195.195,0,1,0-.275-.275c-.116.117-.179.119-.2.115-.037-.005-.071-.054-.078-.067a.195.195,0,0,0-.347.176A.527.527,0,0,0,230.633,198.918Z" transform="translate(-222.796 -195.623)" fill="#f5f5f5"/>
    <path id="Path_95101" data-name="Path 95101" d="M301.253,178.189l0-.009a.195.195,0,0,0-.369.125.436.436,0,0,0,.317.3l.043,0a.477.477,0,0,0,.377-.26.195.195,0,1,0-.324-.216A.578.578,0,0,1,301.253,178.189Z" transform="translate(-290.106 -176.262)" fill="#f5f5f5"/>
    <path id="Path_95102" data-name="Path 95102" d="M193.964,153.567c0-.83-.037-1.609-.087-2.292a9.861,9.861,0,0,1,.684,1.387.195.195,0,0,0,.365-.137,12.892,12.892,0,0,0-1.126-2.134c-.106-1.049-.226-1.715-.228-1.727a.195.195,0,0,0-.383.07c0,.008.063.351.136.929-.15-.222-.289-.422-.405-.587l.01,0a.195.195,0,1,0,.123-.369l-.584-.195a.193.193,0,0,0-.248.13.425.425,0,0,0-.406-.1.331.331,0,0,0-.186.346,1.762,1.762,0,0,0,.134.552c.115.325.186.564.065.678a.213.213,0,0,1-.2.07c-.12-.03-.239-.19-.318-.428a.186.186,0,0,0-.016-.027,3.312,3.312,0,0,0-.059-1.077.195.195,0,1,0-.382.076,1.853,1.853,0,0,1-.1,1.388.35.35,0,0,1-.291.132.112.112,0,0,1-.093-.043,1.877,1.877,0,0,1-.1-1.1.195.195,0,0,0-.193-.222c-.335,0-.462.381-.574.717-.049.148-.141.423-.2.451-.118,0-.194-.346-.195-.584a.2.2,0,0,0-.195-.194h0a.194.194,0,0,0-.194.195c0,.449.153.974.584.974.321,0,.451-.35.56-.675a1.22,1.22,0,0,0,.221.692.5.5,0,0,0,.387.178.741.741,0,0,0,.592-.274.911.911,0,0,0,.072-.107.727.727,0,0,0,.408.306.562.562,0,0,0,.138.017.618.618,0,0,0,.424-.181.573.573,0,0,0,.065-.079.526.526,0,0,0,.144.022.788.788,0,0,0,.4-.124.195.195,0,0,0-.209-.328.414.414,0,0,1-.22.058,2.009,2.009,0,0,0-.148-.64,2.7,2.7,0,0,1-.1-.326c.016.014.032.028.046.041a.2.2,0,0,0,.275,0,.188.188,0,0,0,.028-.043c.2.278.617.862,1.044,1.536.081.828.153,1.884.153,3.042a.195.195,0,0,0,.39,0Z" transform="translate(-183.199 -148.102)" fill="#f5f5f5"/>
    <path id="Path_95103" data-name="Path 95103" d="M301.066,149.292a.195.195,0,0,0,.389,0,1.988,1.988,0,0,0-.215-.671.195.195,0,1,0-.348.174A1.728,1.728,0,0,1,301.066,149.292Z" transform="translate(-290.107 -148.112)" fill="#f5f5f5"/>
    <path id="Path_95104" data-name="Path 95104" d="M264.545,248.624a.194.194,0,0,0-.261.086.559.559,0,0,1-.081.116,1.088,1.088,0,0,1,.051-.36.195.195,0,0,0-.324-.195l-.389.389a.195.195,0,0,0,.275.275l.01-.01a.4.4,0,0,0,.1.2.356.356,0,0,0,.253.112.337.337,0,0,0,.053,0,.634.634,0,0,0,.395-.353A.194.194,0,0,0,264.545,248.624Z" transform="translate(-254.472 -243.138)" fill="#f5f5f5"/>
    <path id="Path_95105" data-name="Path 95105" d="M153.6,195.582h-1.372q.018-.073.037-.139c.547-.114.873-.29.968-.526a.435.435,0,0,0-.073-.437.483.483,0,0,0-.492-.21c-.277.056-.523.354-.7.832a2.238,2.238,0,0,0-1.124.486,3.019,3.019,0,0,0-.4-1.295.195.195,0,1,0-.324.216,2.812,2.812,0,0,1,.357,1.45,1.541,1.541,0,0,1-1.168,1.558c-.219,0-.314-.26-.356-.48a2.236,2.236,0,0,0,.935-1.031,1.549,1.549,0,0,0-.13-1.056l-.014-.034.012.012a.195.195,0,0,0,.275-.275c-.114-.114-.335-.293-.536-.209a.331.331,0,0,0-.186.347.829.829,0,0,0,.091.313,1.177,1.177,0,0,1,.11.808,1.647,1.647,0,0,1-.637.7.192.192,0,0,0-.147-.071h0a.2.2,0,0,0-.194.195c0,.035,0,.073,0,.111a10.248,10.248,0,0,1-1.253.686.195.195,0,0,0,.081.372.192.192,0,0,0,.08-.017,11.211,11.211,0,0,0,1.163-.623.757.757,0,0,0,.7.64,1.654,1.654,0,0,0,1.3-.952,1.133,1.133,0,0,0,.13.186,2.2,2.2,0,0,0,1.488.572.195.195,0,0,0,.014-.389.417.417,0,0,1-.243-.118.334.334,0,0,1-.064-.256c.02-.24.794-.419,1.476-.43a.2.2,0,0,0,.181-.13l.195-.548a.195.195,0,0,0-.183-.26Zm-.855-.93.015,0c.019,0,.048.009.087.062.007.01.031.044.025.059-.022.055-.157.146-.437.229C152.564,194.759,152.684,194.665,152.75,194.652Zm-1.176,2.56a1.192,1.192,0,0,1-.539-.328.828.828,0,0,1-.173-.686.574.574,0,0,1,.041-.083c.274-.025,1.007.083,1.058.293a.654.654,0,0,0-.412.508A.824.824,0,0,0,151.574,197.212Z" transform="translate(-143.607 -191.663)" fill="#f5f5f5"/>
    <path id="Path_95106" data-name="Path 95106" d="M298.265,149.226l-.195-.584a.195.195,0,0,0-.379.081c.134,1.344.388,3.964.388,4.265,0,.27-.48.8-1.255,1.189a.195.195,0,0,0,.174.348c.708-.354,1.471-.986,1.471-1.537,0-.288-.2-2.358-.313-3.521A.2.2,0,0,0,298.265,149.226Z" transform="translate(-286.147 -148.107)" fill="#f5f5f5"/>
    <path id="Path_95107" data-name="Path 95107" d="M351.368,181.873a.195.195,0,0,0,.326-.186.983.983,0,0,1-.028-.378.2.2,0,0,0,.2-.167.2.2,0,0,0-.165-.22.352.352,0,0,0-.321.108.446.446,0,0,0-.1.209l-.225-.226a.195.195,0,0,0-.275.275Z" transform="translate(-337.625 -178.996)" fill="#f5f5f5"/>
    <path id="Path_95108" data-name="Path 95108" d="M357.248,204.885l-.73.523a.195.195,0,1,0,.227.316l.73-.523a.195.195,0,1,0-.227-.316Z" transform="translate(-343.067 -201.806)" fill="#f5f5f5"/>
    <path id="Path_95109" data-name="Path 95109" d="M371.535,219.725a.2.2,0,0,0,.017.258.54.54,0,0,1,.039.28.2.2,0,0,0,.188.2h.007a.2.2,0,0,0,.195-.188c.014-.4-.116-.543-.173-.587A.2.2,0,0,0,371.535,219.725Z" transform="translate(-357.419 -215.914)" fill="#f5f5f5"/>
    <path id="Path_95110" data-name="Path 95110" d="M337.6,153.355a.2.2,0,0,0,.195-.195c0-.287-.015-.608-.039-.942a7.108,7.108,0,0,1,.456.848.194.194,0,0,0,.179.118.192.192,0,0,0,.077-.016.2.2,0,0,0,.1-.256,10.713,10.713,0,0,0-.891-1.536c-.076-.715-.176-1.415-.254-1.917a.188.188,0,0,0,.122-.03.11.11,0,1,1,.108-.12.708.708,0,0,1,.071.477.2.2,0,0,0,.151.23.2.2,0,0,0,.04,0,.2.2,0,0,0,.191-.155,1.1,1.1,0,0,0-.124-.765.2.2,0,0,0-.269-.06.193.193,0,0,0-.087.176.19.19,0,0,0-.022-.056l-.329-.511a.195.195,0,0,0-.356.139c0,.015.152.87.283,1.9-.149-.211-.3-.417-.443-.614-.024-.295-.047-.567-.068-.792a.2.2,0,0,0,.032-.013.2.2,0,0,0,.087-.261l-.195-.389a.195.195,0,0,0-.368.107c.023.232.047.49.071.76-.123-.162-.237-.311-.335-.437a.195.195,0,0,0-.04-.322l-.39-.195a.195.195,0,0,0-.239.3c.01.013.49.614,1.064,1.39a15.655,15.655,0,0,1,.072,2.906c-.017.051-.047.112-.075.114-.118.016-.4-.247-.54-.529a.271.271,0,0,0-.261-.176c-.209.013-.291.243-.439.661a2.74,2.74,0,0,1-.387.824,2.214,2.214,0,0,1-.242-.767.194.194,0,0,0,.376-.066c0-.29-.2-2.5-.317-3.714a.2.2,0,0,0,.112-.242l-.195-.584a.195.195,0,0,0-.379.08c.132,1.389.38,4.072.388,4.443l0-.01a.195.195,0,1,0-.385.055c.057.4.2,1.082.537,1.194a.325.325,0,0,0,.1.017.383.383,0,0,0,.274-.127,2.807,2.807,0,0,0,.482-.973c.029-.081.063-.176.094-.258.179.261.49.586.806.56a.478.478,0,0,0,.417-.379,10.969,10.969,0,0,0-.007-2.431c.164.23.328.465.485.7.061.583.1,1.167.1,1.647A.2.2,0,0,0,337.6,153.355Z" transform="translate(-321.783 -148.109)" fill="#f5f5f5"/>
    <path id="Path_95111" data-name="Path 95111" d="M407.048,152.828c-.138-1.028-.33-2.218-.452-2.949a.192.192,0,0,0,.163-.035.2.2,0,0,0,.037-.273l-.353-.462a.195.195,0,0,0-.347.152c0,.02.351,2.019.566,3.619a1.825,1.825,0,0,1-.321,1.461.862.862,0,0,1-.714.266.195.195,0,0,0-.025.389c.033,0,.065,0,.1,0a1.229,1.229,0,0,0,.926-.392A2.175,2.175,0,0,0,407.048,152.828Z" transform="translate(-389.754 -148.607)" fill="#f5f5f5"/>
    <path id="Path_95112" data-name="Path 95112" d="M393.358,256.087a.2.2,0,0,0,.01.274.083.083,0,0,1,.023.04.091.091,0,0,1-.03.044.195.195,0,1,0,.275.275.442.442,0,0,0,.143-.332.464.464,0,0,0-.153-.317A.193.193,0,0,0,393.358,256.087Z" transform="translate(-378.207 -250.582)" fill="#f5f5f5"/>
    <path id="Path_95113" data-name="Path 95113" d="M134.313,340.567H132.95v-.195a.195.195,0,0,0-.389,0v.195H122.24a2.718,2.718,0,0,0,1.753.584h8.568v.39a.2.2,0,0,0,.195.195h1.558a.584.584,0,0,0,0-1.168Zm0,.779H132.95v-.195h1.558l-.035-.1a.189.189,0,0,1,.035.1A.2.2,0,0,1,134.313,341.346Z" transform="translate(-119.849 -330.792)" fill="#f5f5f5"/>
  </g>
</svg>
