<svg width="31" height="21" viewBox="0 0 31 21" fill="none" xmlns="http://www.w3.org/2000/svg">
<path d="M20.5898 0.015625H10.5898C5.067 0.015625 0.589844 4.49278 0.589844 10.0156C0.589844 15.5385 5.067 20.0156 10.5898 20.0156H20.5898C26.1127 20.0156 30.5898 15.5385 30.5898 10.0156C30.5898 4.49278 26.1127 0.015625 20.5898 0.015625Z" fill="#5AC37F"/>
<path d="M20.2808 15.6161C20.5822 15.618 20.881 15.5606 21.1601 15.4471C21.4392 15.3336 21.6933 15.1662 21.9077 14.9544C22.1221 14.7427 22.2927 14.4908 22.4098 14.2131C22.5268 13.9354 22.588 13.6374 22.5898 13.3361V11.5211C22.3852 11.5329 22.1804 11.5028 21.9878 11.4326C21.7953 11.3624 21.6191 11.2537 21.47 11.113C21.321 10.9723 21.2023 10.8027 21.1211 10.6145C21.04 10.4263 20.9981 10.2235 20.9981 10.0186C20.9981 9.81362 21.04 9.61084 21.1211 9.42265C21.2023 9.23446 21.321 9.06482 21.47 8.92414C21.6191 8.78346 21.7953 8.6747 21.9878 8.60453C22.1804 8.53436 22.3852 8.50426 22.5898 8.51606V6.69606C22.588 6.39473 22.5268 6.0967 22.4098 5.81902C22.2927 5.54133 22.1221 5.28943 21.9077 5.07769C21.6933 4.86596 21.4392 4.69855 21.1601 4.58503C20.881 4.4715 20.5822 4.41409 20.2808 4.41606H10.8988C10.5975 4.41409 10.2987 4.4715 10.0196 4.58503C9.74045 4.69855 9.48641 4.86596 9.27198 5.07769C9.05756 5.28943 8.88695 5.54133 8.76991 5.81902C8.65286 6.0967 8.59168 6.39473 8.58984 6.69606V8.57006C8.78562 8.56188 8.98104 8.59311 9.16451 8.6619C9.34798 8.73068 9.51577 8.83562 9.65791 8.97049C9.80005 9.10536 9.91365 9.2674 9.99197 9.44701C10.0703 9.62662 10.1117 9.82013 10.1138 10.0161C10.1131 10.2151 10.073 10.412 9.99587 10.5955C9.91877 10.779 9.80618 10.9454 9.66457 11.0852C9.52296 11.2251 9.35512 11.3356 9.17069 11.4104C8.98625 11.4852 8.78886 11.5228 8.58984 11.5211V13.3361C8.59168 13.6374 8.65286 13.9354 8.76991 14.2131C8.88695 14.4908 9.05756 14.7427 9.27198 14.9544C9.48641 15.1662 9.74045 15.3336 10.0196 15.4471C10.2987 15.5606 10.5975 15.618 10.8988 15.6161H20.2808Z" stroke="white" stroke-width="1.5" stroke-miterlimit="10" stroke-linecap="round" stroke-linejoin="round"/>
<path d="M12.4248 12.4408L17.5648 7.30078" stroke="white" stroke-width="1.5" stroke-miterlimit="10" stroke-linecap="round" stroke-linejoin="round"/>
<path d="M17.8116 13.7027C17.6798 13.7018 17.5494 13.6748 17.4281 13.6233C17.3068 13.5718 17.1968 13.4969 17.1046 13.4027C17.0142 13.3061 16.9421 13.194 16.8916 13.0717C16.8381 12.9536 16.8108 12.8254 16.8116 12.6957C16.8105 12.5606 16.8377 12.4267 16.8916 12.3027C16.9423 12.1845 17.0145 12.0767 17.1046 11.9847C17.2953 11.8039 17.5482 11.7031 17.8111 11.7031C18.0739 11.7031 18.3268 11.8039 18.5176 11.9847C18.6119 12.0761 18.6888 12.1839 18.7446 12.3027C18.7877 12.4293 18.8103 12.562 18.8116 12.6957C18.8101 12.8239 18.7874 12.951 18.7446 13.0717C18.6895 13.1964 18.6126 13.3102 18.5176 13.4077C18.3306 13.5958 18.0767 13.7019 17.8116 13.7027Z" stroke="white"/>
<path d="M12.6709 8.56226C12.5421 8.56221 12.4149 8.53423 12.2979 8.48026C12.1742 8.42876 12.0609 8.35485 11.9639 8.26226C11.8765 8.16345 11.8046 8.05182 11.7509 7.93126C11.6979 7.81336 11.6707 7.68553 11.6709 7.55626C11.6696 7.42076 11.6969 7.2865 11.7509 7.16226C11.7985 7.04257 11.8711 6.93447 11.9639 6.84526C12.1544 6.66375 12.4074 6.5625 12.6704 6.5625C12.9335 6.5625 13.1865 6.66375 13.3769 6.84526C13.5653 7.03394 13.671 7.28967 13.6709 7.55626C13.6758 7.68495 13.6529 7.81317 13.6039 7.93226C13.5455 8.05469 13.469 8.16763 13.3769 8.26726C13.2846 8.35771 13.176 8.42997 13.0569 8.48026C12.9354 8.53423 12.8039 8.56216 12.6709 8.56226" stroke="white"/>
</svg>
