<svg width="36" height="34" viewBox="0 0 36 34" fill="none" xmlns="http://www.w3.org/2000/svg">
<path d="M14.3766 22.0872C11.5216 22.0872 9.48361 20.2742 7.99861 18.9502C7.05961 18.1112 6.24961 17.3902 5.59861 17.3872H4.84961L4.89261 16.6382C5.06649 13.5374 6.41996 10.6206 8.67553 8.48565C10.9311 6.35075 13.9179 5.15955 17.0236 5.15625C17.2756 5.15625 17.5253 5.16325 17.7726 5.17725H18.0236L18.2096 5.34824C20.2096 7.19324 20.2506 9.23825 18.3306 11.4152C17.5122 12.2977 16.632 13.1208 15.6966 13.8783C14.5917 14.6803 13.6425 15.6773 12.8956 16.8202C12.7927 16.9936 12.7369 17.1908 12.7337 17.3923C12.7306 17.5939 12.7802 17.7928 12.8776 17.9692C13.3134 18.5558 13.917 18.9963 14.6086 19.2322C15.3076 19.5056 15.9647 19.8759 16.5606 20.3322H16.6606L17.0926 20.8892L16.8646 21.7712H16.4396C15.8475 21.9765 15.2243 22.078 14.5976 22.0712L14.3766 22.0872Z" fill="#CCD33D"/>
<path d="M17.0355 29.4779C13.8837 29.478 10.8549 28.2547 8.58729 26.0656C6.3197 23.8766 4.9904 20.8927 4.87949 17.7429L4.85449 16.9829L5.61449 17.0039C6.43849 17.0249 7.24549 17.7459 8.26649 18.6559C9.78349 20.0089 11.6665 21.6899 14.3665 21.6899H14.5805C15.2012 21.7014 15.8183 21.5924 16.3975 21.3689C16.5335 21.2979 16.6115 21.2229 16.6295 21.1479C16.6475 21.0729 16.6585 21.0339 16.5115 20.8549C15.918 20.3001 15.2164 19.8739 14.4505 19.6029C13.7792 19.3483 13.1862 18.9226 12.7305 18.3679C12.5514 18.1284 12.4414 17.8444 12.4125 17.5468C12.3836 17.2492 12.4369 16.9493 12.5665 16.6799C13.3235 15.4727 14.3106 14.4262 15.4715 13.5999C16.3864 12.8567 17.2482 12.0504 18.0505 11.1869C19.6355 9.38087 19.8345 7.97487 18.7645 6.54688L17.6435 5.04688L19.4775 5.40388C21.2611 5.76245 22.9408 6.5189 24.3915 7.61687L24.7915 7.91688L23.8635 10.9899L24.8485 11.9749L26.2935 9.35188L26.9505 10.2759C27.8946 11.5982 28.5623 13.0975 28.9135 14.6839L29.0315 15.2229L28.5425 15.4689C26.6425 16.4329 26.5795 16.9789 26.4585 17.9689C26.3265 19.0399 26.1485 20.5459 22.9645 23.2009C22.0855 23.873 21.3354 24.6986 20.7505 25.6379C20.2856 26.4606 20.1252 27.4207 20.2975 28.3499L20.4085 29.0319L19.7515 29.1819C18.8601 29.3818 17.949 29.4811 17.0355 29.4779Z" fill="#73DDCD"/>
<path d="M29.7092 11.9464L30.3092 9.95144L27.7572 7.54644L24.9362 12.6324L23.4122 11.1084L25.2212 5.15244L23.0512 3.10744C22.8268 2.90599 22.6702 2.63998 22.6031 2.34596C22.5359 2.05195 22.5615 1.74435 22.6762 1.46544C22.8614 1.03019 23.208 0.683608 23.6432 0.498438H23.6792C23.8453 0.433589 24.0219 0.399697 24.2002 0.398438C24.4023 0.402062 24.6016 0.446952 24.7858 0.530353C24.9699 0.613753 25.1351 0.733906 25.2712 0.883438L27.3122 3.04944L33.2762 1.24944L34.8002 2.77344L29.7142 5.58244L32.1192 8.13444L34.1192 7.53444L35.3572 8.77244L32.9362 10.1164L32.5042 10.3304L32.3042 10.7304L30.9362 13.1864L29.7092 11.9464Z" fill="white"/>
<path d="M19.8699 28.3183C19.7169 27.3352 19.9005 26.3291 20.3909 25.4633C21.0065 24.4764 21.7975 23.6104 22.7249 22.9083C25.7869 20.3533 25.9369 19.0083 26.0799 17.9293C26.1979 16.9553 26.4079 16.1983 28.0709 15.2843L28.9949 14.7773L29.1089 15.8263C29.1687 16.3214 29.1984 16.8197 29.1979 17.3183C29.2013 18.9166 28.8876 20.4997 28.275 21.9759C27.6624 23.4521 26.763 24.7921 25.6289 25.9184C24.2756 27.2695 22.6239 28.284 20.8069 28.8803L19.9969 29.1443L19.8699 28.3183Z" fill="#CCD33D"/>
<path d="M5.43033 28.2618C5.38059 28.3115 5.34113 28.3705 5.31421 28.4355C5.28729 28.5004 5.27344 28.57 5.27344 28.6403C5.27344 28.7106 5.28729 28.7802 5.31421 28.8452C5.34113 28.9101 5.38059 28.9691 5.43033 29.0188C5.78247 29.3757 6.15403 29.7129 6.54333 30.0288C6.59304 30.0785 6.65205 30.118 6.71699 30.1449C6.78193 30.1718 6.85154 30.1856 6.92183 30.1856C6.99213 30.1856 7.06173 30.1718 7.12667 30.1449C7.19162 30.118 7.25063 30.0785 7.30033 30.0288C7.35004 29.9791 7.38947 29.9201 7.41637 29.8552C7.44327 29.7902 7.45711 29.7206 7.45711 29.6503C7.45711 29.58 7.44327 29.5104 7.41637 29.4455C7.38947 29.3806 7.35004 29.3215 7.30033 29.2718C7.28644 29.258 7.27175 29.2449 7.25633 29.2328L7.22033 29.2038C6.86333 28.9038 6.50633 28.5898 6.17833 28.2618C6.07837 28.1641 5.94413 28.1094 5.80433 28.1094C5.66454 28.1094 5.53029 28.1641 5.43033 28.2618Z" fill="#2B1B19"/>
<path d="M1.15004 15.8985H1.21804C1.34899 15.8988 1.47547 15.8509 1.57352 15.7641C1.67157 15.6773 1.73437 15.5576 1.75004 15.4275C1.80704 14.9635 1.88604 14.4965 1.98604 14.0425C2.01495 13.9704 2.02778 13.8928 2.02365 13.8151C2.01951 13.7375 1.99851 13.6617 1.96209 13.593C1.92568 13.5243 1.87473 13.4644 1.8128 13.4174C1.75086 13.3704 1.67943 13.3375 1.60348 13.3209C1.52752 13.3043 1.44886 13.3045 1.37298 13.3214C1.2971 13.3383 1.22582 13.3716 1.1641 13.4189C1.10238 13.4661 1.0517 13.5263 1.0156 13.5951C0.979491 13.664 0.958826 13.7399 0.95504 13.8175C0.84804 14.3065 0.76604 14.8025 0.70504 15.2985C0.686305 15.4368 0.72235 15.577 0.805485 15.6891C0.888619 15.8012 1.01226 15.8763 1.15004 15.8985Z" fill="#2B1B19"/>
<path d="M3.09459 25.0405C3.03414 25.0764 2.98137 25.1239 2.93929 25.1803C2.89722 25.2366 2.86668 25.3007 2.8494 25.3689C2.83213 25.4371 2.82846 25.508 2.83861 25.5776C2.84877 25.6472 2.87255 25.7141 2.90859 25.7745C3.16559 26.2025 3.44359 26.6235 3.74059 27.0275C3.8244 27.1421 3.95028 27.2186 4.09056 27.2404C4.23084 27.2622 4.37401 27.2273 4.48859 27.1435C4.60316 27.0597 4.67975 26.9338 4.7015 26.7935C4.72326 26.6532 4.6884 26.51 4.60459 26.3955C4.32959 26.0175 4.06959 25.6245 3.83059 25.2245C3.79464 25.164 3.74713 25.1113 3.69078 25.0692C3.63442 25.0271 3.57032 24.9966 3.50215 24.9793C3.43398 24.962 3.36307 24.9583 3.29348 24.9685C3.22388 24.9786 3.15698 25.0024 3.09659 25.0385L3.09459 25.0405Z" fill="#2B1B19"/>
<path d="M1.59298 21.3315C1.45788 21.3727 1.34453 21.4656 1.27766 21.5899C1.21078 21.7143 1.1958 21.8601 1.23598 21.9955C1.37898 22.4735 1.54298 22.9515 1.72898 23.4235C1.78727 23.5498 1.8917 23.6489 2.0208 23.7005C2.14991 23.7522 2.29389 23.7524 2.42317 23.7012C2.55246 23.65 2.65722 23.5513 2.71596 23.4252C2.77469 23.2992 2.78293 23.1554 2.73898 23.0235C2.56798 22.5915 2.41098 22.1455 2.27898 21.6955C2.23783 21.5604 2.14493 21.4471 2.02054 21.3802C1.89615 21.3133 1.75037 21.2983 1.61498 21.3385L1.59298 21.3315Z" fill="#2B1B19"/>
<path d="M2.02486 11.994C2.09046 12.0208 2.16073 12.0342 2.23158 12.0336C2.30243 12.033 2.37245 12.0183 2.43757 11.9904C2.50269 11.9625 2.56162 11.9219 2.61094 11.871C2.66025 11.8202 2.69898 11.76 2.72486 11.694C2.89299 11.2569 3.08494 10.8292 3.29986 10.413C3.3315 10.3503 3.35048 10.2819 3.3557 10.2118C3.36091 10.1417 3.35227 10.0712 3.33027 10.0045C3.30826 9.93769 3.27332 9.87591 3.22743 9.82265C3.18155 9.76939 3.12563 9.72568 3.06286 9.69404C3.00008 9.66239 2.93169 9.64341 2.86159 9.6382C2.79148 9.63298 2.72104 9.64162 2.65427 9.66362C2.58751 9.68563 2.52573 9.72058 2.47247 9.76646C2.41921 9.81234 2.37551 9.86826 2.34386 9.93103C2.11886 10.377 1.91186 10.837 1.72986 11.305C1.67898 11.4356 1.68138 11.581 1.73654 11.7098C1.79171 11.8387 1.89523 11.9407 2.02486 11.994Z" fill="#2B1B19"/>
<path d="M1.22191 19.893H1.31091C1.38079 19.8841 1.44823 19.8616 1.50938 19.8266C1.57053 19.7916 1.62419 19.7449 1.66728 19.6892C1.71037 19.6335 1.74206 19.5698 1.76053 19.5018C1.779 19.4339 1.78388 19.3629 1.77491 19.293C1.71791 18.829 1.67491 18.358 1.66091 17.893C1.65264 17.7531 1.5899 17.6221 1.48615 17.5279C1.3824 17.4337 1.24588 17.3838 1.10584 17.389C0.965798 17.3943 0.833376 17.4541 0.736939 17.5558C0.640503 17.6575 0.587724 17.7929 0.589909 17.933C0.598031 18.4351 0.638448 18.9361 0.710909 19.433C0.728457 19.5575 0.78929 19.6719 0.882733 19.756C0.976176 19.8401 1.09626 19.8886 1.22191 19.893Z" fill="#2B1B19"/>
<path d="M13.9923 2.22507H14.0923C14.5523 2.13607 15.0203 2.06807 15.4843 2.02507C15.558 2.02306 15.6306 2.00594 15.6974 1.97476C15.7643 1.94358 15.824 1.89901 15.873 1.8438C15.9219 1.78859 15.959 1.72393 15.9819 1.65381C16.0049 1.58369 16.0132 1.50961 16.0063 1.43616C15.9994 1.3627 15.9776 1.29144 15.9421 1.22678C15.9065 1.16212 15.8581 1.10543 15.7998 1.06024C15.7415 1.01505 15.6745 0.982305 15.6031 0.964042C15.5316 0.945779 15.4571 0.942384 15.3843 0.954067C14.8843 1.00407 14.3843 1.07507 13.8963 1.17207C13.7568 1.18046 13.6261 1.24265 13.5316 1.34553C13.4372 1.44842 13.3863 1.58396 13.3898 1.7236C13.3933 1.86324 13.4509 1.99607 13.5504 2.09409C13.6499 2.19211 13.7836 2.24767 13.9233 2.24907C13.9477 2.24835 13.9721 2.24601 13.9963 2.24207L13.9923 2.22507Z" fill="#2B1B19"/>
<path d="M4.11199 8.53523C4.19682 8.53552 4.28051 8.51563 4.35615 8.47721C4.43178 8.43878 4.4972 8.38291 4.54699 8.31423C4.82199 7.93623 5.11399 7.56523 5.42099 7.21423C5.47078 7.1632 5.50994 7.1028 5.53623 7.03652C5.56251 6.97025 5.57538 6.89943 5.5741 6.82814C5.57282 6.75686 5.55741 6.68653 5.52876 6.62125C5.50011 6.55596 5.4588 6.49701 5.40721 6.4478C5.35562 6.39859 5.29478 6.36011 5.22822 6.33457C5.16165 6.30904 5.09068 6.29697 5.01942 6.29906C4.94815 6.30114 4.87801 6.31735 4.81305 6.34673C4.74809 6.37611 4.68961 6.41809 4.64099 6.47023L4.61399 6.50023C4.27947 6.87421 3.96726 7.26755 3.67899 7.67822C3.62117 7.75799 3.58649 7.85218 3.57879 7.9504C3.57108 8.04861 3.59065 8.14704 3.63532 8.23485C3.68 8.32266 3.74806 8.39643 3.83199 8.44802C3.91592 8.49961 4.01247 8.52702 4.11099 8.52723L4.11199 8.53523Z" fill="#2B1B19"/>
<path d="M19.341 2.11177H19.423C19.564 2.12033 19.7027 2.07302 19.809 1.98009C19.9153 1.88716 19.9808 1.75609 19.9911 1.61526C20.0015 1.47443 19.956 1.33517 19.8645 1.22765C19.7729 1.12012 19.6427 1.05298 19.502 1.04077C19.009 0.965768 18.502 0.912769 18.002 0.883769C17.86 0.875282 17.7205 0.92356 17.614 1.01798C17.5076 1.11241 17.443 1.24525 17.4345 1.38727C17.4261 1.52929 17.4743 1.66887 17.5688 1.7753C17.6632 1.88172 17.796 1.94628 17.938 1.95477C18.409 1.98977 18.877 2.03777 19.341 2.11177Z" fill="#2B1B19"/>
<path d="M7.18159 5.49917C7.53859 5.19917 7.9166 4.91417 8.3026 4.65017C8.41956 4.56968 8.49975 4.44602 8.52553 4.3064C8.55132 4.16678 8.52059 4.02264 8.44009 3.90568C8.3596 3.78872 8.23594 3.70852 8.09632 3.68273C7.9567 3.65695 7.81255 3.68768 7.69559 3.76817C7.28559 4.05017 6.88159 4.35717 6.49559 4.67417C6.43913 4.71838 6.39212 4.77347 6.35733 4.83618C6.32254 4.89888 6.3007 4.96793 6.29307 5.03923C6.28545 5.11053 6.29222 5.18264 6.31296 5.25128C6.33371 5.31992 6.36802 5.3837 6.41386 5.43884C6.4597 5.49398 6.51615 5.53937 6.57984 5.57231C6.64354 5.60524 6.71319 5.62507 6.78468 5.6306C6.85618 5.63613 6.92806 5.62726 6.99606 5.60451C7.06407 5.58177 7.12682 5.54561 7.18059 5.49817L7.18159 5.49917Z" fill="#2B1B19"/>
<path d="M10.2012 3.46814C10.2802 3.46725 10.3581 3.4488 10.4292 3.41414C10.8502 3.21414 11.2862 3.03214 11.7292 2.87214C11.8601 2.82977 11.9697 2.73856 12.0351 2.61747C12.1006 2.49639 12.1168 2.35474 12.0805 2.22198C12.0442 2.08922 11.9581 1.97556 11.8401 1.90463C11.7222 1.83371 11.5814 1.81097 11.4471 1.84114L11.3722 1.86614C10.8999 2.03394 10.4375 2.22825 9.98715 2.44814C9.87597 2.4993 9.7857 2.58702 9.73137 2.69669C9.67705 2.80635 9.66197 2.93132 9.68864 3.05076C9.71531 3.1702 9.78213 3.27688 9.87794 3.35302C9.97376 3.42916 10.0928 3.47014 10.2152 3.46914L10.2012 3.46814Z" fill="#2B1B19"/>
<path d="M16.5969 32.7108C16.4579 32.7117 16.3247 32.7666 16.2253 32.8639C16.126 32.9612 16.0684 33.0933 16.0646 33.2323C16.0609 33.3713 16.1113 33.5063 16.2052 33.6088C16.2991 33.7113 16.4291 33.7734 16.5679 33.7818H17.0139C17.3709 33.7818 17.7279 33.7818 18.0629 33.7498C18.1332 33.7453 18.202 33.7271 18.2653 33.696C18.3285 33.665 18.385 33.6218 18.4316 33.5689C18.4782 33.516 18.5139 33.4545 18.5367 33.3878C18.5595 33.3211 18.5689 33.2506 18.5644 33.1803C18.56 33.11 18.5417 33.0412 18.5106 32.978C18.4796 32.9147 18.4364 32.8582 18.3835 32.8116C18.3306 32.7651 18.2691 32.7293 18.2024 32.7066C18.1358 32.6838 18.0652 32.6743 17.9949 32.6788C17.5298 32.7141 17.0632 32.7247 16.5969 32.7108Z" fill="#2B1B19"/>
<path d="M31.8455 23.1834C31.979 23.2313 32.1261 23.2241 32.2543 23.1636C32.3826 23.103 32.4816 22.994 32.5295 22.8604C32.6975 22.3894 32.8435 21.9074 32.9685 21.4324C32.9895 21.3653 32.9972 21.2947 32.991 21.2247C32.9848 21.1546 32.9648 21.0864 32.9323 21.0241C32.8997 20.9617 32.8552 20.9064 32.8013 20.8613C32.7474 20.8161 32.6851 20.782 32.618 20.7609C32.5509 20.7399 32.4803 20.7322 32.4102 20.7384C32.3401 20.7446 32.272 20.7646 32.2096 20.7971C32.1473 20.8297 32.0919 20.8742 32.0468 20.9281C32.0016 20.982 31.9675 21.0443 31.9465 21.1114C31.9394 21.1347 31.9337 21.1584 31.9295 21.1824C31.8155 21.6354 31.6765 22.0824 31.5195 22.5244C31.4795 22.6551 31.4911 22.7961 31.5517 22.9186C31.6123 23.0411 31.7174 23.1359 31.8455 23.1834Z" fill="#2B1B19"/>
<path d="M32.7182 15.2632H32.8072C32.8766 15.252 32.9432 15.2273 33.003 15.1904C33.0629 15.1534 33.1149 15.1051 33.156 15.0481C33.1972 14.991 33.2266 14.9264 33.2428 14.858C33.259 14.7896 33.2615 14.7186 33.2502 14.6492C33.1682 14.1562 33.0642 13.6602 32.9402 13.1792C32.9027 13.0438 32.8133 12.9285 32.6915 12.8584C32.5696 12.7883 32.4251 12.769 32.2891 12.8046C32.1531 12.8402 32.0366 12.9279 31.9648 13.0487C31.8929 13.1695 31.8716 13.3137 31.9052 13.4502C32.0232 13.9002 32.1192 14.3642 32.1982 14.8242C32.2205 14.9464 32.2845 15.057 32.3794 15.137C32.4743 15.2171 32.5941 15.2618 32.7182 15.2632Z" fill="#2B1B19"/>
<path d="M33.1338 0.923726L27.4488 2.64373L25.5338 0.608726C25.2961 0.333791 24.9779 0.140636 24.6243 0.0566372C24.2707 -0.0273614 23.8997 0.00205812 23.5638 0.140726H23.5338C23.2765 0.246595 23.0428 0.402376 22.8461 0.599073C22.6494 0.795771 22.4936 1.02949 22.3878 1.28673C22.334 1.42232 22.2958 1.56355 22.2738 1.70773L22.0558 1.63273C21.9887 1.61119 21.9181 1.60307 21.8479 1.60883C21.7777 1.61458 21.7094 1.63411 21.6467 1.66628C21.5841 1.69846 21.5284 1.74265 21.4829 1.79635C21.4373 1.85004 21.4028 1.91219 21.3813 1.97923C21.3597 2.04627 21.3516 2.11689 21.3574 2.18707C21.3631 2.25725 21.3826 2.32561 21.4148 2.38824C21.447 2.45087 21.4912 2.50655 21.5449 2.55211C21.5986 2.59766 21.6607 2.63219 21.7278 2.65373C22.0028 2.74273 22.2778 2.84273 22.5518 2.94673C22.6344 3.07621 22.7313 3.19596 22.8408 3.30373L24.8648 5.21673L24.2868 7.12573C21.7014 5.28201 18.5144 4.48446 15.3654 4.89318C12.2164 5.30189 9.3386 6.88662 7.30961 9.32923C5.28063 11.7718 4.25069 14.8915 4.42654 18.0621C4.6024 21.2326 5.97103 24.2193 8.25769 26.4225C10.5444 28.6258 13.5798 29.8825 16.7547 29.9405C19.9295 29.9984 23.0088 28.8533 25.3744 26.735C27.7399 24.6167 29.2167 21.682 29.5081 18.52C29.7996 15.358 28.8842 12.2028 26.9458 9.68773L27.8598 8.03873L29.9798 10.0387L29.4698 11.7267C29.4389 11.8171 29.4335 11.9142 29.4543 12.0074C29.4752 12.1005 29.5213 12.1861 29.5878 12.2547C29.5878 12.2547 30.6338 13.2937 30.6578 13.3287C30.7758 13.3986 30.9168 13.4188 31.0497 13.3848C31.1826 13.3509 31.2966 13.2656 31.3668 13.1477V13.1397L32.7668 10.5807L35.2868 9.20673C35.3627 9.17173 35.4292 9.11895 35.4804 9.05285C35.5317 8.98675 35.5663 8.90928 35.5813 8.82699C35.5963 8.7447 35.5913 8.66 35.5667 8.58006C35.542 8.50012 35.4985 8.42729 35.4398 8.36773L34.5008 7.36773C34.4342 7.30158 34.351 7.25473 34.26 7.23219C34.1689 7.20965 34.0734 7.21225 33.9838 7.23973L32.2778 7.75673L30.2778 5.63673L34.7638 3.13673C34.8397 3.10173 34.9062 3.04895 34.9574 2.98285C35.0087 2.91675 35.0433 2.83928 35.0583 2.75699C35.0733 2.6747 35.0683 2.59 35.0437 2.51006C35.019 2.43012 34.9755 2.35729 34.9168 2.29773L33.6568 1.03773C33.588 0.973282 33.5031 0.928657 33.411 0.908586C33.3189 0.888515 33.2231 0.893747 33.1338 0.923726ZM8.89476 9.20873C9.9609 8.14299 11.2268 7.29808 12.62 6.72237C14.0132 6.14666 15.5063 5.85148 17.0138 5.85373C17.2518 5.85373 17.4898 5.86073 17.7278 5.87473C19.7518 7.74173 19.1558 9.44372 17.7988 10.9747C16.9984 11.8236 16.1396 12.6156 15.2288 13.3447C14.0245 14.2074 13.0021 15.2988 12.2198 16.5567C11.6698 17.7987 12.0738 18.9227 14.2938 19.9047C15.0133 20.1611 15.6755 20.5562 16.2428 21.0677C16.2748 21.1067 16.3068 21.0677 16.2998 21.0677C16.2752 21.0696 16.2512 21.0757 16.2288 21.0857C15.6911 21.2904 15.1189 21.3886 14.5438 21.3747C11.8528 21.4887 9.93676 19.7687 8.44376 18.4377C7.37276 17.4847 6.48476 16.6927 5.55976 16.6857C5.71287 13.8678 6.90038 11.2054 8.89476 9.20873ZM28.5238 17.3387C28.5219 19.7654 27.7529 22.1293 26.3267 24.0925C24.9004 26.0558 22.89 27.5179 20.5828 28.2697C20.4502 27.4334 20.6049 26.5768 21.0218 25.8397C21.5872 24.9317 22.3126 24.1338 23.1628 23.4847C26.4568 20.7367 26.6428 19.2017 26.7848 18.0207C26.8738 17.2747 26.9418 16.7207 28.4158 15.9077C28.4747 16.3815 28.5044 16.8584 28.5048 17.3357L28.5238 17.3387ZM27.8568 13.4767C28.0164 13.9261 28.1476 14.385 28.2498 14.8507C26.0048 15.9927 25.9048 16.8067 25.7698 17.9167C25.6488 18.9167 25.4918 20.2217 22.5148 22.7057C21.5614 23.4351 20.7509 24.3342 20.1238 25.3577C19.5771 26.3244 19.3878 27.4525 19.5888 28.5447C17.938 28.922 16.2242 28.9301 14.57 28.5684C12.9157 28.2067 11.3617 27.4841 10.0191 26.4523C8.6764 25.4205 7.57816 24.1049 6.8028 22.5995C6.02745 21.0941 5.59412 19.436 5.53376 17.7437C6.10076 17.7437 6.83376 18.4187 7.73976 19.2217C9.37476 20.6817 11.4658 22.5447 14.5818 22.4337C15.3158 22.4461 16.0445 22.3076 16.7228 22.0267C16.864 21.9642 16.9901 21.8719 17.0923 21.7561C17.1945 21.6403 17.2704 21.5037 17.3148 21.3557C17.3522 21.1914 17.3483 21.0203 17.3034 20.8579C17.2586 20.6954 17.1742 20.5466 17.0578 20.4247C16.3898 19.781 15.5949 19.2837 14.7238 18.9647C13.2138 18.2977 12.8858 17.6477 13.1818 16.9837C13.9128 15.8767 14.8365 14.9098 15.9088 14.1287C16.8598 13.3595 17.7554 12.5241 18.5888 11.6287C20.0808 9.92873 20.8478 8.05973 19.3308 6.05073C21.0165 6.3953 22.6027 7.11624 23.9708 8.15973L23.1498 10.8687C23.1201 10.9597 23.116 11.0571 23.1381 11.1503C23.1601 11.2434 23.2074 11.3287 23.2748 11.3967C23.2748 11.3967 24.6058 12.7167 24.6488 12.7417C24.7668 12.8116 24.9078 12.8318 25.0407 12.7978C25.1736 12.7639 25.2876 12.6786 25.3578 12.5607V12.5527L26.3968 10.6757C27.01 11.5383 27.501 12.4816 27.8558 13.4787L27.8568 13.4767ZM29.1848 5.05373C29.1246 5.08549 29.0713 5.12882 29.0279 5.18122C28.9846 5.23362 28.9519 5.29407 28.932 5.3591C28.912 5.42413 28.9051 5.49246 28.9115 5.56018C28.918 5.6279 28.9378 5.69367 28.9698 5.75373L28.9778 5.76773C28.9988 5.80673 31.7298 8.71173 31.7298 8.71173C31.7961 8.78176 31.8807 8.83188 31.974 8.85644C32.0672 8.881 32.1655 8.87902 32.2578 8.85073L33.9818 8.32973L34.2498 8.59773L32.6438 9.48673L32.1838 9.71473C32.0805 9.76565 31.9974 9.84983 31.9478 9.95372L31.7198 10.4177L30.8338 12.0267L30.5728 11.7407L31.0898 10.0317C31.1192 9.93371 31.119 9.82916 31.0891 9.73127C31.0592 9.63338 31.001 9.54655 30.9218 9.48172L28.1058 6.83373C28.0577 6.78559 28.0007 6.7474 27.9379 6.72134C27.8751 6.69529 27.8078 6.68187 27.7398 6.68187C27.6718 6.68187 27.6044 6.69529 27.5416 6.72134C27.4788 6.7474 27.4218 6.78559 27.3738 6.83373C27.3378 6.87273 24.8038 11.4337 24.8038 11.4337L24.2508 10.8807L25.9778 5.18873C26.0079 5.09029 26.008 4.98511 25.978 4.88662C25.9481 4.78812 25.8895 4.70078 25.8098 4.63573L23.5518 2.55073C23.4313 2.44791 23.347 2.30927 23.311 2.15508C23.275 2.00088 23.2893 1.83922 23.3518 1.69373C23.4657 1.4344 23.6736 1.22787 23.9338 1.11573H23.9518C24.0959 1.06001 24.2538 1.05068 24.4035 1.08904C24.5532 1.1274 24.6872 1.21155 24.7868 1.32973L26.9278 3.59273C26.9936 3.66355 27.078 3.7145 27.1713 3.73978C27.2646 3.76506 27.3632 3.76365 27.4558 3.73573L33.1628 2.00873L33.7158 2.56173L29.1848 5.05373Z" fill="#2B1B19"/>
<path d="M31.2385 24.5278C31.1154 24.4634 30.9721 24.4494 30.8388 24.4887C30.7056 24.5281 30.5929 24.6178 30.5245 24.7388C30.2995 25.1488 30.0536 25.5528 29.7896 25.9388C29.7145 26.0554 29.6875 26.1965 29.7141 26.3325C29.7407 26.4686 29.8189 26.5891 29.9323 26.6688C30.0458 26.7485 30.1856 26.7813 30.3227 26.7602C30.4597 26.7392 30.5833 26.6659 30.6676 26.5558C30.9456 26.1418 31.2096 25.7098 31.4526 25.2748C31.5244 25.1526 31.5449 25.007 31.5095 24.8697C31.474 24.7325 31.3856 24.6149 31.2636 24.5428L31.2385 24.5278Z" fill="#2B1B19"/>
<path d="M33.4309 18.8298C33.4769 18.3298 33.4989 17.8298 33.4989 17.3298V17.2548C33.4981 17.1135 33.4414 16.9782 33.3412 16.8785C33.2409 16.7788 33.1053 16.7228 32.9639 16.7228C32.8936 16.721 32.8237 16.733 32.7581 16.7582C32.6924 16.7833 32.6324 16.8212 32.5815 16.8696C32.5305 16.918 32.4895 16.9759 32.4609 17.0401C32.4324 17.1044 32.4167 17.1736 32.4149 17.2438C32.4151 17.2475 32.4151 17.2512 32.4149 17.2548V17.3368C32.4149 17.8038 32.3939 18.2758 32.3509 18.7428C32.3444 18.8129 32.3519 18.8836 32.3727 18.9508C32.3936 19.018 32.4276 19.0804 32.4726 19.1345C32.5177 19.1885 32.573 19.2332 32.6353 19.2658C32.6977 19.2985 32.7658 19.3186 32.8359 19.3248H32.8869C33.0237 19.3275 33.1563 19.2777 33.2574 19.1856C33.3586 19.0936 33.4207 18.9663 33.4309 18.8298Z" fill="#2B1B19"/>
<path d="M12.7892 32.1297C12.6568 32.0885 12.5136 32.1001 12.3896 32.1623C12.2657 32.2244 12.1706 32.3321 12.1244 32.4629C12.0782 32.5936 12.0844 32.7371 12.1418 32.8633C12.1992 32.9896 12.3033 33.0886 12.4322 33.1397H12.4962C12.9742 33.2757 13.4672 33.3927 13.9592 33.4967H14.0592C14.132 33.5084 14.2065 33.505 14.278 33.4868C14.3495 33.4685 14.4164 33.4358 14.4747 33.3906C14.533 33.3454 14.5815 33.2887 14.617 33.224C14.6525 33.1594 14.6744 33.0881 14.6812 33.0146C14.6881 32.9412 14.6798 32.8671 14.6568 32.797C14.6339 32.7269 14.5968 32.6622 14.5479 32.607C14.499 32.5518 14.4392 32.5072 14.3723 32.476C14.3055 32.4449 14.2329 32.4278 14.1592 32.4258C13.6967 32.3563 13.2391 32.2574 12.7892 32.1297Z" fill="#2B1B19"/>
<path d="M21.7926 31.9652C21.3499 32.1137 20.898 32.233 20.4396 32.3222C20.371 32.3377 20.306 32.3665 20.2485 32.4071C20.191 32.4477 20.142 32.4993 20.1044 32.5588C20.0668 32.6183 20.0412 32.6847 20.0293 32.7541C20.0173 32.8235 20.0191 32.8945 20.0346 32.9632C20.0501 33.0319 20.079 33.0968 20.1196 33.1543C20.1602 33.2119 20.2117 33.2608 20.2713 33.2984C20.3308 33.3361 20.3971 33.3616 20.4665 33.3735C20.5359 33.3855 20.6069 33.3837 20.6756 33.3682C21.1606 33.2572 21.6496 33.1222 22.1246 32.9682C22.2571 32.9222 22.3662 32.8261 22.4285 32.7006C22.4908 32.575 22.5014 32.43 22.4579 32.2967C22.4144 32.1634 22.3203 32.0526 22.1959 31.988C22.0715 31.9233 21.9267 31.9101 21.7926 31.9512V31.9652Z" fill="#2B1B19"/>
<path d="M9.2421 30.6094C9.18379 30.57 9.1183 30.5425 9.04935 30.5284C8.98041 30.5143 8.90936 30.514 8.84027 30.5273C8.77119 30.5407 8.70541 30.5676 8.6467 30.6064C8.58799 30.6451 8.53749 30.6951 8.4981 30.7534C8.4587 30.8117 8.43118 30.8772 8.41709 30.9462C8.40301 31.0151 8.40264 31.0862 8.41601 31.1552C8.42938 31.2243 8.45623 31.2901 8.49502 31.3488C8.53381 31.4075 8.58379 31.458 8.6421 31.4974C8.66001 31.5096 8.67872 31.5207 8.6981 31.5304C9.1301 31.7834 9.5761 32.0194 10.0291 32.2444C10.0929 32.2744 10.1619 32.2916 10.2323 32.2949C10.3027 32.2982 10.373 32.2877 10.4393 32.2638C10.5056 32.2399 10.5666 32.2032 10.6187 32.1558C10.6708 32.1084 10.7131 32.0512 10.7431 31.9874C10.7731 31.9237 10.7903 31.8546 10.7936 31.7842C10.7969 31.7139 10.7863 31.6435 10.7625 31.5772C10.7386 31.5109 10.7019 31.45 10.6545 31.3978C10.6071 31.3457 10.5499 31.3034 10.4861 31.2734C10.0631 31.0664 9.6451 30.8374 9.2421 30.6094Z" fill="#2B1B19"/>
<path d="M28.2447 27.8629C27.9273 28.2078 27.5915 28.5353 27.2387 28.8439C27.1862 28.8908 27.1434 28.9476 27.1128 29.011C27.0822 29.0744 27.0644 29.1433 27.0604 29.2135C27.0564 29.2838 27.0663 29.3542 27.0895 29.4207C27.1128 29.4872 27.1488 29.5484 27.1957 29.6009C27.2426 29.6535 27.2994 29.6963 27.3628 29.7269C27.4262 29.7574 27.495 29.7752 27.5653 29.7792C27.6356 29.7832 27.706 29.7733 27.7725 29.7501C27.8389 29.7269 27.9002 29.6908 27.9527 29.6439C28.3097 29.3119 28.6877 28.959 29.0237 28.595C29.0718 28.5436 29.1093 28.4833 29.134 28.4175C29.1588 28.3516 29.1703 28.2816 29.168 28.2113C29.1657 28.141 29.1495 28.0718 29.1205 28.0078C29.0914 27.9437 29.0501 27.886 28.9987 27.8379C28.9474 27.7899 28.8871 27.7524 28.8212 27.7276C28.7554 27.7029 28.6854 27.6913 28.6151 27.6937C28.5448 27.696 28.4756 27.7121 28.4115 27.7412C28.3475 27.7702 28.2898 27.8116 28.2417 27.8629H28.2447Z" fill="#2B1B19"/>
<path d="M25.2765 30.3214C24.8835 30.5714 24.4765 30.8063 24.0595 31.0353C23.9389 31.1034 23.8494 31.2155 23.8097 31.3481C23.7699 31.4807 23.783 31.6235 23.8462 31.7467C23.9094 31.8699 24.0178 31.9638 24.1487 32.0089C24.2796 32.0539 24.4229 32.0465 24.5485 31.9883C24.9915 31.7603 25.4305 31.5064 25.8485 31.2394C25.9646 31.1638 26.0469 31.0462 26.0781 30.9112C26.1092 30.7763 26.0869 30.6345 26.0156 30.5157C25.9444 30.3969 25.8298 30.3104 25.6961 30.2743C25.5623 30.2382 25.4198 30.2555 25.2985 30.3224L25.2765 30.3214Z" fill="#2B1B19"/>
</svg>
