<svg width="100" height="100" viewBox="0 0 100 100" fill="none" xmlns="http://www.w3.org/2000/svg">
<path d="M100 50C100 22.3858 77.6142 0 50 0C22.3858 0 0 22.3858 0 50C0 77.6142 22.3858 100 50 100C77.6142 100 100 77.6142 100 50Z" fill="#E1F4FC"/>
<path d="M49.298 50.094C53.6958 50.094 57.261 46.5288 57.261 42.131C57.261 37.7331 53.6958 34.168 49.298 34.168C44.9001 34.168 41.335 37.7331 41.335 42.131C41.335 46.5288 44.9001 50.094 49.298 50.094Z" stroke="#29ABE2" stroke-width="2.5" stroke-miterlimit="10" stroke-linecap="round" stroke-linejoin="round"/>
<path d="M36.667 61.1717C36.6649 60.6119 36.79 60.059 37.033 59.5547C37.796 58.0287 39.947 57.2207 41.733 56.8547C43.0198 56.5798 44.3244 56.396 45.637 56.3047C48.068 56.0911 50.513 56.0911 52.944 56.3047C54.2569 56.3967 55.5617 56.5801 56.849 56.8537C58.634 57.2197 60.785 57.9537 61.549 59.5537C61.7904 60.0612 61.9156 60.6162 61.9156 61.1782C61.9156 61.7402 61.7904 62.2951 61.549 62.8027C60.786 64.4027 58.635 65.1367 56.849 65.4877C55.5634 65.7736 54.258 65.9621 52.944 66.0517C50.9652 66.2196 48.9771 66.2503 46.994 66.1437C46.5398 66.1589 46.0852 66.1284 45.637 66.0527C44.3279 65.9642 43.0274 65.7757 41.747 65.4887C39.947 65.1377 37.811 64.4057 37.033 62.8037C36.7913 62.2936 36.6663 61.7361 36.667 61.1717V61.1717Z" stroke="#29ABE2" stroke-width="2.5" stroke-miterlimit="10" stroke-linecap="round" stroke-linejoin="round"/>
</svg>
