<svg width="61" height="40" viewBox="0 0 61 40" fill="none" xmlns="http://www.w3.org/2000/svg">
<path d="M4.48054 39.8757L4.28854 39.8557C3.5219 39.7688 2.78995 39.4883 2.16154 39.0407C1.24081 38.3776 0.588059 37.4066 0.321545 36.3037C0.177109 35.6954 0.149956 35.0651 0.241543 34.4467C0.360617 33.6486 0.681877 32.8942 1.17477 32.2554C1.66766 31.6165 2.3158 31.1143 3.05754 30.7967C3.43428 30.6392 3.83052 30.5333 4.23555 30.4817C4.59246 30.4488 4.95163 30.4488 5.30854 30.4817C5.79491 30.5436 6.26783 30.6848 6.70854 30.8997C7.17764 31.1202 7.60206 31.4253 7.96054 31.7997C8.30116 32.1332 8.58672 32.5187 8.80655 32.9417L8.86154 33.0417L8.66154 33.1867C8.39154 33.3867 7.76154 33.8367 7.55354 33.9767L7.38354 34.0917L7.31355 33.9397C7.24449 33.7829 7.16149 33.6326 7.06555 33.4907C6.66555 32.8949 6.04748 32.4801 5.34454 32.3357C4.94632 32.2577 4.53595 32.2668 4.14155 32.3622C3.74715 32.4577 3.37805 32.6372 3.05954 32.8887C2.89207 33.0278 2.73714 33.1814 2.59654 33.3477C2.32308 33.6895 2.12995 34.0884 2.03146 34.5149C1.93297 34.9414 1.93163 35.3846 2.02754 35.8117C2.11016 36.1562 2.25011 36.4845 2.44154 36.7827C2.66545 37.1247 2.96099 37.4139 3.30769 37.6304C3.65439 37.8469 4.04399 37.9855 4.44954 38.0367C4.6615 38.0543 4.87458 38.0543 5.08654 38.0367C5.81444 37.9445 6.47754 37.5717 6.93454 36.9977C7.06447 36.8357 7.17677 36.6604 7.26954 36.4747C7.29662 36.417 7.32803 36.3615 7.36354 36.3087C7.36354 36.3087 7.70154 36.5437 8.10354 36.8317L8.83455 37.3537L8.76054 37.4937C8.57693 37.8258 8.35363 38.1344 8.09555 38.4127C7.71076 38.8334 7.24871 39.1763 6.73454 39.4227C6.27419 39.6473 5.77926 39.7927 5.27055 39.8527C5.15955 39.8717 4.56254 39.8857 4.48054 39.8757ZM10.7335 35.1207V30.5437H12.5085V33.8297H17.1445V30.5437H18.9195V39.6977H17.1445V35.6707H12.5076V39.6977H10.7325V35.1207H10.7335ZM20.7146 38.8867L22.7435 34.3097L24.4125 30.5437H26.9035L28.9215 35.0647L30.9646 39.6417L30.9895 39.6977H28.8635L28.4525 38.7897L28.0425 37.8827H25.6675H23.2925L22.8865 38.7827L22.4805 39.6827H20.3545L20.7146 38.8867ZM27.2915 36.0367C27.2845 36.0037 25.6715 32.3997 25.6645 32.3997C25.6575 32.3997 24.1275 35.9737 24.1035 36.0427C24.1035 36.0497 24.7135 36.0547 25.6975 36.0547C26.2285 36.075 26.7602 36.0687 27.2905 36.0357L27.2915 36.0367ZM32.4205 35.1207V30.5437H34.9205L36.8745 33.2887L38.8255 36.0357V33.2907V30.5457H40.6145V39.6997H39.8965H39.1785L36.7005 36.2587C35.3375 34.3667 34.2175 32.8177 34.2115 32.8177C34.2055 32.8177 34.2015 34.3667 34.2015 36.2617V39.7057H32.4125L32.4205 35.1207ZM43.8535 35.1207V30.5437H50.2535V32.3847H45.6445V34.2127H49.9105V36.0537H45.6445V37.8817H50.9175V39.6967H43.8565L43.8535 35.1207ZM53.4185 35.1207V30.5437H55.2065V37.8827H60.1875V39.6977H53.4175L53.4185 35.1207Z" fill="black"/>
<path d="M22.7699 28.2163C20.7632 28.1018 18.8029 27.5673 17.0159 26.6473C15.7357 25.9832 14.5697 25.119 13.5619 24.0873C12.7859 23.3306 12.1064 22.4808 11.5389 21.5573L11.3049 21.1703L11.6369 20.9923C12.2839 20.6493 15.2369 19.1383 15.2579 19.1383C15.3579 19.2539 15.4485 19.3773 15.5289 19.5073C16.2948 20.644 17.2932 21.6052 18.4582 22.3273C19.6232 23.0494 20.9282 23.516 22.2869 23.6963C23.1218 23.7648 23.9611 23.7584 24.7949 23.6773C25.393 23.5899 25.9835 23.4562 26.5609 23.2773C26.5909 23.2673 26.5339 23.1773 26.4039 23.0223C24.9494 21.2724 23.9486 19.1911 23.4899 16.9624C23.0312 14.7337 23.1287 12.4263 23.7739 10.2443C24.2808 8.51865 25.1168 6.90737 26.2359 5.49932C26.3447 5.37283 26.4449 5.2392 26.5359 5.09932C26.0804 4.91923 25.6056 4.7927 25.1209 4.72231C24.1272 4.57408 23.1181 4.56065 22.1209 4.68233C20.8099 4.88947 19.5526 5.35296 18.4209 6.04632C17.263 6.77723 16.2722 7.7439 15.5129 8.88332L15.1709 9.39333L14.7359 9.16433C14.4969 9.03833 13.6079 8.57831 12.7599 8.14031C11.9119 7.70231 11.2169 7.34032 11.2139 7.34032C11.2109 7.34032 11.7309 6.48431 11.9489 6.17031C12.7277 5.09259 13.6381 4.11637 14.6589 3.2643C16.8425 1.49522 19.5075 0.423515 22.3079 0.188314C23.0892 0.141397 23.8726 0.141397 24.6539 0.188314C26.3807 0.331201 28.0636 0.806585 29.6099 1.58831L30.3749 1.97033L30.6309 1.82433C31.1824 1.52507 31.7526 1.26153 32.3379 1.03533C34.9685 0.0566431 37.8313 -0.114672 40.5599 0.543325C42.9944 1.12788 45.2227 2.36689 47.0039 4.12633C47.9426 5.02538 48.7505 6.0517 49.4039 7.17531L49.4989 7.34032L47.9509 8.14031C47.0989 8.57931 46.2089 9.0403 45.9719 9.1653L45.5409 9.39132L45.2149 8.89931C44.4214 7.70175 43.3705 6.69653 42.1388 5.95708C40.9072 5.21764 39.5259 4.76266 38.0959 4.62533C37.1301 4.55243 36.1589 4.60859 35.2079 4.79232C34.855 4.86822 34.5079 4.96844 34.1689 5.09231C34.2399 5.20042 34.3181 5.30367 34.4029 5.40133C36.0728 7.47255 37.1183 9.97656 37.4169 12.6203C37.4986 13.6037 37.505 14.5919 37.4359 15.5763C37.1631 18.2283 36.1316 20.7455 34.4649 22.8263C34.0929 23.2843 34.1089 23.2533 34.2279 23.2993C34.2849 23.3203 34.5479 23.3943 34.8139 23.4613C36.1794 23.8044 37.6025 23.8518 38.9879 23.6003C40.2311 23.3649 41.4155 22.8862 42.4732 22.1917C43.5308 21.4972 44.4408 20.6006 45.1509 19.5533C45.2849 19.3533 45.4059 19.1813 45.4199 19.1653C45.6753 19.2521 45.9223 19.3619 46.1579 19.4933C46.9339 19.8823 49.3639 21.1403 49.3899 21.1663C49.0424 21.7983 48.6388 22.3977 48.1839 22.9573C47.5126 23.7441 46.7796 24.4761 45.9919 25.1463C43.8679 26.8569 41.2888 27.9067 38.574 28.1659C35.8593 28.425 33.1281 27.8821 30.7189 26.6043L30.3669 26.4123L29.9309 26.6433C27.7271 27.7974 25.2545 28.3405 22.7699 28.2163ZM30.8409 20.2703C32.0388 18.7959 32.7829 17.0055 32.9829 15.1163C33.0394 14.2973 33.0157 13.4747 32.9119 12.6603C32.6726 11.1652 32.0695 9.75177 31.1559 8.54433C30.9829 8.31433 30.7309 8.00732 30.5949 7.86132L30.3489 7.5963L30.1209 7.84331C29.7354 8.28301 29.3834 8.75098 29.0679 9.24331C27.7814 11.3495 27.3667 13.8743 27.9119 16.2813C28.2818 17.8617 29.0314 19.328 30.0959 20.5533L30.3399 20.8323L30.4469 20.7323C30.5029 20.6733 30.6809 20.4663 30.8369 20.2693L30.8409 20.2703Z" fill="black"/>
</svg>
