<svg width="61" height="34" viewBox="0 0 61 34" fill="none" xmlns="http://www.w3.org/2000/svg">
<path d="M36.0535 23.3607C34.0405 23.81 32.0908 24.5063 30.2485 25.4337C26.5357 23.7445 22.5094 22.8546 18.4305 22.8217C13.9322 22.8471 9.49699 23.8815 5.45154 25.8487L0.186523 0.0136719H36.0535M36.0535 23.3577V0.0136719L10.8845 6.48166H7.69153V15.9357H14.0775V13.6967H10.8845L36.0535 23.3577ZM44.8025 31.3577C43.3515 31.3577 43.0195 30.7357 43.0195 28.9937H49.5295C49.5295 24.8067 48.5295 23.0637 44.8025 23.0637C40.7385 23.0637 39.6605 24.4737 39.6605 28.1227C39.6605 31.6887 41.1535 33.3887 44.5945 33.3887C47.9945 33.3887 49.2385 32.1447 49.3215 30.1967H46.3365C21.1675 14.1137 20.8775 14.4877 19.6335 14.4877L44.8025 31.3577ZM43.0195 27.1287C43.0195 25.7197 43.3095 24.9287 44.6785 24.9287C46.0055 24.9287 46.3375 25.5507 46.3375 27.1287H43.0195ZM53.0955 23.3557H49.6125L53.2195 32.8097H57.1585L60.8485 23.3557H57.4485L55.2485 29.5337L53.0955 23.3557Z" fill="#A50716"/>
<path d="M36.0127 0.0136719H60.1867L54.5057 25.8457C50.8612 23.6867 46.6727 22.6217 42.4397 22.7777C40.2839 22.7696 38.1321 22.9641 36.0127 23.3587M36.5937 6.44066V15.9407H39.7037V6.44066H36.5937ZM42.0667 7.06267L41.9007 8.01666C42.9007 7.39466 43.3107 6.85567 43.3107 6.15067C43.3168 5.98032 43.2856 5.81071 43.2192 5.6537C43.1528 5.4967 43.0529 5.3561 42.9265 5.24178C42.8001 5.12745 42.6502 5.04215 42.4873 4.99187C42.3245 4.94158 42.1526 4.92752 41.9837 4.95067C41.824 4.93018 41.6617 4.94377 41.5076 4.99054C41.3535 5.03731 41.211 5.1162 41.0896 5.22202C40.9682 5.32783 40.8706 5.45817 40.8032 5.60445C40.7358 5.75072 40.7002 5.90962 40.6987 6.07066C40.6987 6.94066 41.2787 7.06467 42.0687 7.06467L42.0667 7.06267ZM46.5037 12.9507H43.1447C43.1857 15.2317 44.3887 16.1437 48.0377 16.1437C51.4377 16.1437 52.8057 15.3977 52.8057 13.0337C52.8057 9.30166 46.5057 11.1677 46.5057 8.92867C46.5057 8.38967 47.1277 7.93466 47.9567 7.93466C48.8277 7.93466 49.1567 8.30667 49.3667 9.09467H52.5597C52.5187 7.10467 51.3597 6.19467 48.1597 6.19467C44.8427 6.19467 43.3087 7.10666 43.3087 9.18066C43.3087 13.2857 49.6087 11.0887 49.6087 13.4097C49.6087 14.1097 49.2357 14.4467 48.3237 14.4467C47.2497 14.4467 46.5867 14.0317 46.5037 12.9527V12.9507ZM49.0747 25.7217C49.5587 25.7217 50.0229 25.9139 50.3652 26.2562C50.7074 26.5984 50.8997 27.0626 50.8997 27.5467C50.8997 28.0307 50.7074 28.4949 50.3652 28.8371C50.0229 29.1794 49.5587 29.3717 49.0747 29.3717C48.8348 29.373 48.597 29.3267 48.3751 29.2355C48.1532 29.1443 47.9516 29.01 47.782 28.8404C47.6123 28.6707 47.478 28.4692 47.3868 28.2473C47.2956 28.0254 47.2494 27.7876 47.2507 27.5477C47.2554 27.0656 47.449 26.6047 47.7898 26.2638C48.1307 25.9229 48.5917 25.7294 49.0737 25.7247L49.0747 25.7217ZM50.6087 27.5467C50.5944 27.1494 50.4264 26.7732 50.1403 26.4972C49.8542 26.2213 49.4722 26.0671 49.0747 26.0671C48.6772 26.0671 48.2951 26.2213 48.009 26.4972C47.7229 26.7732 47.555 27.1494 47.5407 27.5467C47.5471 27.9514 47.7109 28.3377 47.9972 28.6239C48.2835 28.91 48.6699 29.0735 49.0747 29.0797C49.2759 29.0802 49.4753 29.041 49.6614 28.9644C49.8475 28.8877 50.0167 28.7751 50.1591 28.6329C50.3016 28.4908 50.4147 28.322 50.4919 28.1361C50.569 27.9502 50.6087 27.7509 50.6087 27.5497V27.5467ZM48.4527 28.4587V26.6347H48.9527C49.4527 26.6347 49.8237 26.7587 49.8237 27.2147C49.8237 27.4217 49.6997 27.5877 49.4087 27.7547L49.7407 28.4547H49.4087L49.1187 27.9147H48.8287V28.4547L48.4527 28.4587ZM49.4067 27.2137C49.4067 27.0897 49.2407 27.0067 48.8257 27.0067V27.4627C49.1157 27.4657 49.4057 27.4657 49.4057 27.2137H49.4067Z" fill="#A50716"/>
</svg>
