<svg width="61" height="40" viewBox="0 0 61 40" fill="none" xmlns="http://www.w3.org/2000/svg">
<path fill-rule="evenodd" clip-rule="evenodd" d="M9.28892 1.0194C9.02392 1.1994 6.87987 3.71935 6.48887 4.17235C5.78887 4.98735 5.22892 5.7724 4.59892 6.5974C2.30792 9.5974 -0.535125 15.4463 2.00688 19.1153C5.29688 23.8633 12.6119 21.3494 17.3179 19.3594L31.6849 13.1694C34.8849 11.8114 38.0449 10.4694 41.2539 9.05339C42.8599 8.34739 44.4149 7.70435 46.0229 7.00035C49.1399 5.63435 52.5109 4.16535 55.6229 2.87035C56.0459 2.69535 60.1809 0.870366 60.4499 0.812366C60.3159 0.738366 60.1499 0.812396 59.9689 0.868396C54.9689 2.2754 49.7589 3.56138 44.8099 4.98638L36.9839 7.11339L21.3479 11.3594C17.9869 12.2674 12.2409 14.3374 9.18888 11.9424C6.87988 10.1224 6.84287 7.18134 7.74387 4.49034C7.93793 3.87496 8.17381 3.27357 8.44987 2.69036L9.29289 1.02135L9.28892 1.0194Z" fill="#E50019"/>
<path fill-rule="evenodd" clip-rule="evenodd" d="M41.1149 34.1585C41.0779 33.2064 41.0218 31.1584 41.4798 30.3954C41.5426 30.2752 41.6369 30.1743 41.7527 30.1038C41.8685 30.0332 42.0014 29.9956 42.1371 29.9949C42.2727 29.9943 42.4059 30.0308 42.5223 30.1003C42.6388 30.1698 42.734 30.2698 42.7978 30.3895C43.0212 30.9493 43.1415 31.5449 43.1529 32.1475C43.2906 33.407 43.1659 34.6815 42.7868 35.8905C42.7293 36.0137 42.6375 36.1177 42.5224 36.1901C42.4074 36.2626 42.2739 36.3004 42.138 36.2991C42.002 36.2979 41.8693 36.2576 41.7557 36.183C41.642 36.1084 41.5522 36.0027 41.4969 35.8785C41.2569 35.3357 41.1271 34.7508 41.1149 34.1575V34.1585ZM41.5868 27.2255C40.7579 27.3458 39.9862 27.7187 39.3769 28.2935C37.9529 29.4805 37.6639 31.9445 37.7449 33.8145C37.8849 37.0225 39.3819 39.5425 42.8119 39.2045C46.1119 38.8805 46.7509 35.2795 46.6329 32.6185C46.6112 31.8511 46.4903 31.0897 46.2729 30.3535C46.0984 29.7611 45.8211 29.2039 45.4538 28.7075C45.4268 28.6735 45.3968 28.6445 45.3738 28.6075C45.1934 28.3639 44.9773 28.1488 44.7328 27.9695C44.287 27.6373 43.778 27.3996 43.237 27.2709C42.6961 27.1423 42.1345 27.1255 41.5868 27.2215V27.2255Z" fill="#1A1818"/>
<path fill-rule="evenodd" clip-rule="evenodd" d="M32.7787 30.5637C33.2117 30.5537 33.3787 30.5397 33.6337 30.8017C34.4337 31.6137 34.3177 34.4017 34.0147 35.3507C33.9514 35.6147 33.801 35.8497 33.5877 36.0177C33.4686 36.1045 33.333 36.1659 33.1892 36.1982C33.0454 36.2306 32.8965 36.2332 32.7517 36.2057L32.7787 30.5637ZM29.4697 39.0047C30.6297 38.9837 31.8017 39.0047 32.9617 39.0047C33.9125 39.0286 34.8454 38.743 35.6198 38.1907L36.3098 37.5587C37.2301 36.3145 37.6896 34.7892 37.6097 33.2437C37.6727 29.7567 36.1387 27.5117 32.9157 27.5117H29.4757L29.4697 39.0047Z" fill="#1A1818"/>
<path fill-rule="evenodd" clip-rule="evenodd" d="M5.7981 34.7762C5.7981 36.0892 5.76307 37.0112 6.61707 38.0102C6.67707 38.0782 6.69408 38.1162 6.75708 38.1802C7.92508 39.3882 10.2901 39.4982 11.7941 38.8802C12.3765 38.6373 12.8638 38.2111 13.1821 37.6662C13.5327 37.0676 13.7295 36.3914 13.7551 35.6982C13.8061 34.8982 13.7631 33.9672 13.7551 33.1502L13.7361 27.4922H10.4471C10.4541 29.9202 10.5061 32.7082 10.4691 35.0922C10.4621 35.6062 10.3101 36.1622 9.76208 36.1612C9.19008 36.1612 9.08008 35.6172 9.08008 35.0922L9.02606 27.5062H5.74707L5.7981 34.7822V34.7762Z" fill="#1A1818"/>
<path fill-rule="evenodd" clip-rule="evenodd" d="M13.8699 38.3332C14.5341 38.8124 15.3121 39.1094 16.1266 39.1947C16.9412 39.2799 17.7639 39.1505 18.5129 38.8193C19.2159 38.4727 19.7872 37.9071 20.1409 37.2077C20.4946 36.5083 20.6114 35.7129 20.4739 34.9413C20.2447 33.8446 19.5898 32.8836 18.6529 32.2693L17.8529 31.6153C16.8199 30.8833 17.2708 30.0943 17.9958 30.0423C18.5919 30.0606 19.1679 30.2616 19.6459 30.6183C19.7773 30.7257 19.9202 30.8182 20.0719 30.8943L20.0359 27.9812C19.3353 27.5696 18.5452 27.3341 17.7336 27.2949C16.9219 27.2557 16.1129 27.414 15.3759 27.7563C14.9787 28.0148 14.6395 28.3529 14.3798 28.7492C14.12 29.1455 13.9453 29.5915 13.8668 30.0588C13.7882 30.5261 13.8074 31.0047 13.9233 31.4642C14.0391 31.9236 14.2491 32.3541 14.5399 32.7283C14.9809 33.254 15.4733 33.7344 16.0099 34.1623L16.7718 34.8523C17.1488 35.3803 17.1139 36.0662 16.4649 36.2342C16.0358 36.2844 15.6009 36.2432 15.1888 36.1135C14.7768 35.9837 14.3968 35.7682 14.0738 35.4812L13.9069 35.3722L13.8669 38.3332H13.8699Z" fill="#1A1818"/>
<path fill-rule="evenodd" clip-rule="evenodd" d="M20.1945 30.3961L22.1024 30.4011L22.1174 38.983H25.3854V30.3981H27.2184V27.498H20.1895L20.1984 30.3981L20.1945 30.3961Z" fill="#1A1818"/>
<path fill-rule="evenodd" clip-rule="evenodd" d="M52.1906 30.3939L54.0976 30.4039L54.1086 38.989H57.3776V30.4039H59.2136V27.5039H52.1836L52.1906 30.4039V30.3939Z" fill="#1A1818"/>
<path fill-rule="evenodd" clip-rule="evenodd" d="M2.35094 32.928C2.39822 33.8804 2.38954 34.8347 2.32494 35.7861C2.31224 35.8852 2.27737 35.9802 2.22295 36.064C2.16852 36.1479 2.09593 36.2184 2.01054 36.2704C1.92516 36.3223 1.82913 36.3544 1.72966 36.3642C1.63019 36.374 1.52979 36.3613 1.4359 36.327C1.09378 36.2284 0.76626 36.0848 0.461898 35.9V38.2531C0.461898 38.6731 0.398936 38.653 0.725936 38.808C2.08994 39.439 4.04389 39.3421 4.96489 38.0231C5.97089 36.5841 5.6429 34.108 5.6439 32.223L5.6049 27.498H2.31889L2.35289 32.9271L2.35094 32.928Z" fill="#1A1818"/>
<path fill-rule="evenodd" clip-rule="evenodd" d="M48.6726 38.981H51.9726L51.9846 27.5039H48.6406L48.6776 38.9819L48.6726 38.981Z" fill="#1A1818"/>
<path d="M59.0699 37.0117C59.2569 37.0127 59.4406 37.0608 59.6039 37.1517C59.7759 37.2429 59.918 37.3818 60.0129 37.5517C60.1069 37.7188 60.1568 37.907 60.158 38.0987C60.1576 38.2888 60.108 38.4755 60.014 38.6407C59.923 38.8118 59.7839 38.9526 59.614 39.0457C59.4488 39.1407 59.2616 39.1907 59.071 39.1907C58.8804 39.1907 58.6931 39.1407 58.528 39.0457C58.3561 38.9534 58.2153 38.8125 58.123 38.6407C58.0271 38.4754 57.9766 38.2877 57.9766 38.0967C57.9766 37.9056 58.0271 37.718 58.123 37.5527C58.218 37.3835 58.3591 37.2447 58.53 37.1527C58.6951 37.0617 58.8804 37.0136 59.069 37.0127L59.0699 37.0117ZM59.0699 37.1927C58.9133 37.1934 58.7593 37.2333 58.6219 37.3087C58.4773 37.3862 58.3582 37.5039 58.279 37.6477C58.2005 37.7866 58.1588 37.9432 58.158 38.1027C58.1588 38.2613 58.2005 38.4169 58.279 38.5547C58.3564 38.6972 58.4734 38.8143 58.616 38.8917C58.7545 38.9711 58.9113 39.0131 59.071 39.0137C59.2294 39.013 59.3848 38.9709 59.522 38.8917C59.6645 38.8146 59.7813 38.6974 59.858 38.5547C59.9375 38.4172 59.9799 38.2615 59.981 38.1027C59.9794 37.9428 59.9363 37.786 59.856 37.6477C59.7779 37.5037 59.6594 37.3859 59.515 37.3087C59.3786 37.2335 59.2256 37.1936 59.0699 37.1927ZM58.59 38.7057V37.5327H58.99C59.0909 37.5291 59.1919 37.5395 59.29 37.5637C59.3502 37.5844 59.4019 37.6245 59.437 37.6777C59.4734 37.7281 59.4933 37.7885 59.494 37.8507C59.4939 37.8924 59.4856 37.9337 59.4694 37.9721C59.4533 38.0106 59.4297 38.0455 59.4 38.0747C59.3354 38.1397 59.2485 38.1776 59.157 38.1807C59.1941 38.1946 59.228 38.2156 59.257 38.2427C59.3236 38.3132 59.3819 38.3911 59.431 38.4747L59.574 38.7057H59.3439L59.244 38.5207C59.1953 38.418 59.1274 38.3257 59.0439 38.2487C59.0007 38.2171 58.9473 38.2025 58.894 38.2077H58.783V38.7077L58.59 38.7057ZM58.78 38.0467H59.009C59.0875 38.0537 59.1661 38.0359 59.2339 37.9957C59.2538 37.9805 59.2697 37.9608 59.2803 37.9382C59.2909 37.9155 59.296 37.8907 59.295 37.8657C59.295 37.833 59.2852 37.8009 59.267 37.7737C59.2464 37.7463 59.2182 37.7254 59.186 37.7137C59.1245 37.6948 59.0601 37.6873 58.996 37.6917H58.7809V38.0487L58.78 38.0467Z" fill="#1A1818"/>
</svg>
