<svg width="61" height="28" viewBox="0 0 61 28" fill="none" xmlns="http://www.w3.org/2000/svg">
<path d="M33.876 1.9193V0.0292969L35.796 0.0392914V1.9193H33.876Z" fill="black"/>
<path d="M17.3663 16.8594L12.7363 27.7394L14.6163 27.7494L15.6963 25.1394L20.6363 25.1494L21.6963 27.7594L23.6363 27.7694L19.0563 16.8694L17.3663 16.8594ZM16.3863 23.4494L18.1963 19.1294L19.9963 23.4594L16.3863 23.4494Z" fill="black"/>
<path d="M58.7266 1.97984L58.7365 0.0898438L60.6566 0.0998383L60.6465 1.97984H58.7266Z" fill="black"/>
<path d="M29.5361 1.89977L29.5461 0.00976562L31.4661 0.0197601V1.89977H29.5361Z" fill="black"/>
<path d="M2.66602 13.7003V11.8203H4.58602V13.7103L2.66602 13.7003Z" fill="black"/>
<path d="M25.2168 1.88V0L27.1368 0.0100098V1.89L25.2168 1.88Z" fill="black"/>
<path d="M2.58633 19.9994L8.42633 27.7594L9.97633 27.7694L10.0063 16.8794H8.17633L8.15633 24.3994L2.48633 16.8594H0.766329L0.736328 27.7394L2.56633 27.7494L2.58633 19.9994Z" fill="black"/>
<path d="M6.37598 13.7101V11.8301H8.30598L8.29597 13.7201L6.37598 13.7101Z" fill="black"/>
<path d="M35.6261 27.7694L35.6461 16.8894L33.6761 16.8794L30.4661 22.0194L27.2761 16.8594H25.3061L25.2861 27.7394L27.0961 27.7494L27.1161 19.9694L30.3961 25.0794H30.4561L33.7961 19.9594L33.7661 27.7694H35.6261Z" fill="black"/>
<path d="M58.6562 27.5091L58.6862 16.7891H60.6063L60.5762 27.5091H58.6562Z" fill="black"/>
<path d="M55.0665 21.3994L50.0565 21.3894L50.0665 16.8594H48.2165L48.1865 27.7394L50.0465 27.7494L50.0565 23.1594L55.0565 23.1794L55.0465 27.7594L56.8865 27.7694L56.9165 16.8794H55.0765L55.0665 21.3994Z" fill="black"/>
<path d="M51.9763 10.9097L58.8163 10.9297L60.7163 10.9397L60.7363 2.86969L58.8363 2.85968L58.8163 9.00969L51.9863 8.98969C51.7842 7.90372 51.2099 6.92216 50.3622 6.21388C49.5146 5.5056 48.4466 5.1149 47.342 5.10898C46.2374 5.10306 45.1653 5.4823 44.3101 6.18146C43.4549 6.88061 42.8701 7.85595 42.6563 8.93968L35.8363 8.91969L35.8563 2.78969L33.9563 2.77969L33.9363 8.90968H31.4963L31.5163 2.77969L29.6163 2.76968L29.5963 8.89969L27.1363 8.88969L27.1563 2.74969L25.2563 2.73969L25.2363 8.87968L18.7263 8.85968L18.7463 2.72969L16.2363 2.71968C15.1323 2.71755 14.0724 3.15315 13.2889 3.93103C12.5054 4.70891 12.0621 5.76564 12.0563 6.86969L12.0363 8.82968L2.64633 8.79968V8.77969C2.64923 7.67198 3.09056 6.61047 3.87383 5.82719C4.6571 5.04392 5.71862 4.60259 6.82633 4.59969L8.27633 4.60968L8.28633 2.68968L6.83633 2.67969C5.2194 2.6826 3.66953 3.3262 2.52619 4.46954C1.38285 5.61289 0.739236 7.16277 0.736328 8.77969V10.7097L13.9363 10.7497L13.9463 6.85968C13.9527 6.26327 14.1951 5.6937 14.6206 5.27571C15.0461 4.85773 15.6199 4.62542 16.2163 4.62968H16.8163L16.7963 10.7597L42.6363 10.8197C42.8493 11.8997 43.428 12.8733 44.275 13.5764C45.1221 14.2796 46.1856 14.6692 47.2863 14.6797C48.3851 14.6973 49.4555 14.33 50.312 13.6415C51.1686 12.953 51.7573 11.9866 51.9763 10.9097ZM47.3163 12.7997C46.7445 12.8046 46.1841 12.6395 45.7062 12.3253C45.2284 12.0111 44.8547 11.562 44.6327 11.035C44.4106 10.508 44.3502 9.9269 44.4591 9.36549C44.568 8.80408 44.8413 8.28769 45.2442 7.88191C45.6472 7.47613 46.1617 7.19927 46.7223 7.08647C47.2829 6.97368 47.8645 7.03004 48.393 7.24841C48.9215 7.46679 49.3732 7.83732 49.6908 8.31294C50.0083 8.78856 50.1773 9.34782 50.1763 9.91969C50.1771 10.6803 49.8767 11.4103 49.3408 11.95C48.8048 12.4897 48.0769 12.7952 47.3163 12.7997Z" fill="black"/>
<path d="M42.0666 21.4709C40.0466 20.9809 39.5666 20.6109 39.5666 19.7809C39.5666 19.0709 40.2066 18.5109 41.2966 18.5109C42.3435 18.5517 43.3481 18.9346 44.1566 19.6009L45.1566 18.1909C44.0829 17.2976 42.723 16.8218 41.3266 16.8509C39.2266 16.8409 37.7166 18.0809 37.7166 19.9309C37.7066 21.9009 38.9766 22.5709 41.2166 23.1209C43.1766 23.5809 43.5966 23.9908 43.5966 24.7708C43.5966 25.5908 42.8666 26.1209 41.7266 26.1109C40.4753 26.0976 39.2779 25.5993 38.3866 24.7209L37.2666 26.0508C38.4673 27.1506 40.0384 27.7576 41.6666 27.7509C43.8866 27.7609 45.4466 26.5808 45.4466 24.5808C45.4666 22.8208 44.2966 22.0209 42.0666 21.4709Z" fill="black"/>
</svg>
